<?xml version="1.0" encoding="UTF-8" standalone="no"?>
<svg viewBox="0 0 800 600"
 xmlns="http://www.w3.org/2000/svg" xmlns:xlink="http://www.w3.org/1999/xlink" version="1.1">
<title>Qt SVG Document</title>
<desc>Generated with Qt</desc>
<defs>
<clipPath id="clipPath1">
<path vector-effect="none" fill-rule="evenodd" d="M91,15 L785,15 L785,535 L91,535 L91,15"/>
</clipPath>
</defs>
<g fill="none" stroke="black" stroke-width="1" fill-rule="evenodd" stroke-linecap="square" stroke-linejoin="bevel" >

<g fill="none" stroke="#000000" stroke-opacity="1" stroke-width="1" stroke-linecap="square" stroke-linejoin="bevel" transform="matrix(1,0,0,1,0,0)"
font-family="DejaVuSans" font-size="14.6667" font-weight="400" font-style="normal" 
>
</g>

<g fill="none" stroke="#000000" stroke-opacity="1" stroke-width="1" stroke-linecap="square" stroke-linejoin="bevel" transform="matrix(1,0,0,1,0,0)"
font-family="DejaVuSans" font-size="14.6667" font-weight="400" font-style="normal" 
>
</g>

<g fill="#ffffff" fill-opacity="1" stroke="none" transform="matrix(1,0,0,1,0,0)"
font-family="DejaVuSans" font-size="14.6667" font-weight="400" font-style="normal" 
>
<rect x="0" y="0" width="800" height="600"/>
</g>

<g fill="none" stroke="#000000" stroke-opacity="1" stroke-width="1" stroke-linecap="square" stroke-linejoin="bevel" transform="matrix(1,0,0,1,0,0)"
font-family="DejaVuSans" font-size="14.6667" font-weight="400" font-style="normal" 
>
</g>

<g fill="none" stroke="#000000" stroke-opacity="1" stroke-width="1" stroke-linecap="square" stroke-linejoin="bevel" transform="matrix(1,0,0,1,0,0)"
font-family="DejaVuSans" font-size="14.6667" font-weight="400" font-style="normal" 
>
</g>

<g fill="none" stroke="#000000" stroke-opacity="1" stroke-width="1" stroke-linecap="square" stroke-linejoin="bevel" transform="matrix(1,0,0,1,0,0)"
font-family="DejaVuSans" font-size="14.6667" font-weight="400" font-style="normal" 
>
</g>

<g fill="none" stroke="#000000" stroke-opacity="1" stroke-width="1" stroke-linecap="square" stroke-linejoin="bevel" transform="matrix(1,0,0,1,0,0)"
font-family="DejaVuSans" font-size="14.6667" font-weight="400" font-style="normal" 
>
</g>

<g fill="#ffffff" fill-opacity="1" stroke="none" transform="matrix(1,0,0,1,0,0)"
font-family="DejaVuSans" font-size="14.6667" font-weight="400" font-style="normal" 
>
<rect x="0" y="0" width="800" height="600"/>
</g>

<g fill="none" stroke="#000000" stroke-opacity="1" stroke-width="1" stroke-linecap="square" stroke-linejoin="bevel" transform="matrix(1,0,0,1,0,0)"
font-family="DejaVuSans" font-size="14.6667" font-weight="400" font-style="normal" 
>
</g>

<g fill="none" stroke="#000000" stroke-opacity="1" stroke-width="1" stroke-linecap="square" stroke-linejoin="bevel" transform="matrix(1,0,0,1,0,0)"
font-family="DejaVuSans" font-size="14.6667" font-weight="400" font-style="normal" 
>
</g>

<g fill="none" stroke="#000000" stroke-opacity="1" stroke-width="1" stroke-linecap="square" stroke-linejoin="bevel" transform="matrix(1,0,0,1,15,15)"
font-family="DejaVuSans" font-size="14.6667" font-weight="400" font-style="normal" 
>
</g>

<g clip-path="url(#clipPath1)"><g fill="none" stroke="#000000" stroke-opacity="1" stroke-width="1" stroke-linecap="square" stroke-linejoin="bevel" transform="matrix(1,0,0,1,91,15)"
font-family="DejaVuSans" font-size="14.6667" font-weight="400" font-style="normal" 
>
</g>
</g>

<g clip-path="url(#clipPath1)"><g fill="#000000" fill-opacity="0" stroke="#000000" stroke-opacity="0.0666667" stroke-width="1" stroke-linecap="round" stroke-linejoin="round" transform="matrix(1,0,0,1,91,15)"
font-family="DejaVuSans" font-size="14.6667" font-weight="400" font-style="normal" 
>
<path vector-effect="none" fill-rule="evenodd" d="M57.8333,520 L57.8333,0 M173.5,520 L173.5,0 M289.167,520 L289.167,0 M404.833,520 L404.833,0 M520.5,520 L520.5,0 M636.167,520 L636.167,0 M0,520 L694,520 M0,455 L694,455 M0,390 L694,390 M0,325 L694,325 M0,260 L694,260 M0,195 L694,195 M0,130 L694,130 M0,65 L694,65 M0,0 L694,0"/>
</g>
</g>

<g clip-path="url(#clipPath1)"><g fill="none" stroke="#000000" stroke-opacity="1" stroke-width="1" stroke-linecap="square" stroke-linejoin="bevel" transform="matrix(1,0,0,1,91,15)"
font-family="DejaVuSans" font-size="14.6667" font-weight="400" font-style="normal" 
>
</g>
</g>

<g clip-path="url(#clipPath1)"><g fill="#000000" fill-opacity="0" stroke="#bbbbbb" stroke-opacity="1" stroke-width="2" stroke-linecap="round" stroke-linejoin="round" transform="matrix(1,0,0,1,91,15)"
font-family="DejaVuSans" font-size="14.6667" font-weight="400" font-style="normal" 
>
<path vector-effect="none" fill-rule="evenodd" d="M57.8333,260 L65.154,247.691 L72.4747,235.579 L79.7954,223.858 L87.116,212.715 L94.4367,202.329 L101.757,192.866 L109.078,184.477 L116.399,177.296 L123.719,171.439 L131.04,166.999 L138.361,164.047 L145.681,162.631 L153.002,162.772 L160.323,164.47 L167.643,167.696 L174.964,172.399 L182.285,178.504 L189.605,185.913 L196.926,194.507 L204.247,204.15 L211.568,214.686 L218.888,225.947 L226.209,237.753 L233.53,249.915 L240.85,262.239 L248.171,274.527 L255.492,286.582 L262.812,298.212 L270.133,309.23 L277.454,319.461 L284.774,328.74 L292.095,336.919 L299.416,343.868 L306.736,349.474 L314.057,353.649 L321.378,356.325 L328.698,357.459 L336.019,357.035 L343.34,355.057 L350.66,351.559 L357.981,346.595 L365.302,340.246 L372.622,332.612 L379.943,323.817 L387.264,314.001 L394.584,303.32 L401.905,291.946 L409.226,280.061 L416.546,267.855 L423.867,255.524 L431.188,243.263 L438.508,231.271 L445.829,219.739 L453.15,208.85 L460.47,198.781 L467.791,189.69 L475.112,181.725 L482.432,175.013 L489.753,169.66 L497.074,165.753 L504.395,163.354 L511.715,162.502 L519.036,163.209 L526.357,165.466 L533.677,169.235 L540.998,174.457 L548.319,181.047 L555.639,188.901 L562.96,197.892 L570.281,207.878 L577.601,218.697 L584.922,230.178 L592.243,242.135 L599.563,254.378 L606.884,266.712 L614.205,278.938 L621.525,290.861 L628.846,302.29 L636.167,313.042"/>
</g>
</g>

<g clip-path="url(#clipPath1)"><g fill="none" stroke="#000000" stroke-opacity="1" stroke-width="1" stroke-linecap="square" stroke-linejoin="bevel" transform="matrix(1,0,0,1,91,15)"
font-family="DejaVuSans" font-size="14.6667" font-weight="400" font-style="normal" 
>
</g>
</g>

<g clip-path="url(#clipPath1)"><g fill="#000000" fill-opacity="0" stroke="#d62728" stroke-opacity="1" stroke-width="4" stroke-linecap="round" stroke-linejoin="round" transform="matrix(1,0,0,1,91,15)"
font-family="DejaVuSans" font-size="14.6667" font-weight="400" font-style="normal" 
>
<path vector-effect="none" fill-rule="evenodd" d="M115.667,390 L578.333,65"/>
</g>
</g>

<g clip-path="url(#clipPath1)"><g fill="none" stroke="#000000" stroke-opacity="1" stroke-width="1" stroke-linecap="square" stroke-linejoin="bevel" transform="matrix(1,0,0,1,91,15)"
font-family="DejaVuSans" font-size="14.6667" font-weight="400" font-style="normal" 
>
</g>
</g>

<g clip-path="url(#clipPath1)"><g fill="#000000" fill-opacity="0" stroke="#1f77b4" stroke-opacity="1" stroke-dasharray="24,12" stroke-dashoffset="0" stroke-width="3" stroke-linecap="round" stroke-linejoin="round" transform="matrix(1,0,0,1,91,15)"
font-family="DejaVuSans" font-size="14.6667" font-weight="400" font-style="normal" 
>
<path vector-effect="none" fill-rule="evenodd" d="M115.667,65 L578.333,390"/>
</g>
</g>

<g clip-path="url(#clipPath1)"><g fill="none" stroke="#000000" stroke-opacity="1" stroke-width="1" stroke-linecap="square" stroke-linejoin="bevel" transform="matrix(1,0,0,1,91,15)"
font-family="DejaVuSans" font-size="14.6667" font-weight="400" font-style="normal" 
>
</g>
</g>

<g clip-path="url(#clipPath1)"><g fill="#000000" fill-opacity="0" stroke="#2ca02c" stroke-opacity="1" stroke-width="8" stroke-linecap="butt" stroke-linejoin="round" transform="matrix(1,0,0,1,91,15)"
font-family="DejaVuSans" font-size="14.6667" font-weight="400" font-style="normal" 
>
<path vector-effect="none" fill-rule="evenodd" d="M173.5,227.5 L520.5,227.5"/>
</g>
</g>

<g clip-path="url(#clipPath1)"><g fill="none" stroke="#000000" stroke-opacity="1" stroke-width="1" stroke-linecap="square" stroke-linejoin="bevel" transform="matrix(1,0,0,1,91,15)"
font-family="DejaVuSans" font-size="14.6667" font-weight="400" font-style="normal" 
>
</g>
</g>

<g clip-path="url(#clipPath1)"><g fill="none" stroke="#000000" stroke-opacity="1" stroke-width="1" stroke-linecap="square" stroke-linejoin="bevel" transform="matrix(1,0,0,1,91,15)"
font-family="DejaVuSans" font-size="14.6667" font-weight="400" font-style="normal" 
>
</g>
</g>

<g clip-path="url(#clipPath1)"><g fill="none" stroke="#000000" stroke-opacity="1" stroke-width="1" stroke-linecap="square" stroke-linejoin="bevel" transform="matrix(1,0,0,1,91,15)"
font-family="DejaVuSans" font-size="14.6667" font-weight="400" font-style="normal" 
>
</g>
</g>

<g clip-path="url(#clipPath1)"><g fill="none" stroke="#000000" stroke-opacity="1" stroke-width="1" stroke-linecap="square" stroke-linejoin="bevel" transform="matrix(1,0,0,1,200.667,399)"
font-family="DejaVuSans" font-size="14.6667" font-weight="400" font-style="normal" 
>
</g>
</g>

<g clip-path="url(#clipPath1)"><g fill="none" stroke="#000000" stroke-opacity="1" stroke-width="1" stroke-linecap="square" stroke-linejoin="bevel" transform="matrix(1,0,0,1,200.667,399)"
font-family="DejaVuSans" font-size="14.6667" font-weight="400" font-style="normal" 
>
</g>
</g>

<g clip-path="url(#clipPath1)"><g fill="#ffd24d" fill-opacity="1" stroke="#333333" stroke-opacity="1" stroke-width="1" stroke-linecap="square" stroke-linejoin="bevel" transform="matrix(1,0,0,1,200.667,399)"
font-family="DejaVuSans" font-size="14.6667" font-weight="400" font-style="normal" 
>
<path vector-effect="none" fill-rule="evenodd" d="M0,6 C0,2.68629 2.68629,0 6,0 C9.31371,0 12,2.68629 12,6 C12,9.31371 9.31371,12 6,12 C2.68629,12 0,9.31371 0,6 "/>
</g>
</g>

<g clip-path="url(#clipPath1)"><g fill="none" stroke="#000000" stroke-opacity="1" stroke-width="1" stroke-linecap="square" stroke-linejoin="bevel" transform="matrix(1,0,0,1,200.667,399)"
font-family="DejaVuSans" font-size="14.6667" font-weight="400" font-style="normal" 
>
</g>
</g>

<g clip-path="url(#clipPath1)"><g fill="none" stroke="#000000" stroke-opacity="1" stroke-width="1" stroke-linecap="square" stroke-linejoin="bevel" transform="matrix(1,0,0,1,200.667,399)"
font-family="DejaVuSans" font-size="14.6667" font-weight="400" font-style="normal" 
>
</g>
</g>

<g clip-path="url(#clipPath1)"><g fill="none" stroke="#000000" stroke-opacity="1" stroke-width="1" stroke-linecap="square" stroke-linejoin="bevel" transform="matrix(1,0,0,1,200.667,399)"
font-family="DejaVuSans" font-size="14.6667" font-weight="400" font-style="normal" 
>
</g>
</g>

<g clip-path="url(#clipPath1)"><g fill="none" stroke="#000000" stroke-opacity="1" stroke-width="1" stroke-linecap="square" stroke-linejoin="bevel" transform="matrix(1,0,0,1,200.667,399)"
font-family="DejaVuSans" font-size="14.6667" font-weight="400" font-style="normal" 
>
</g>
</g>

<g clip-path="url(#clipPath1)"><g fill="none" stroke="#000000" stroke-opacity="1" stroke-width="1" stroke-linecap="square" stroke-linejoin="bevel" transform="matrix(1,0,0,1,91,15)"
font-family="DejaVuSans" font-size="14.6667" font-weight="400" font-style="normal" 
>
</g>
</g>

<g clip-path="url(#clipPath1)"><g fill="none" stroke="#000000" stroke-opacity="1" stroke-width="1" stroke-linecap="square" stroke-linejoin="bevel" transform="matrix(1,0,0,1,663.333,74)"
font-family="DejaVuSans" font-size="14.6667" font-weight="400" font-style="normal" 
>
</g>
</g>

<g clip-path="url(#clipPath1)"><g fill="none" stroke="#000000" stroke-opacity="1" stroke-width="1" stroke-linecap="square" stroke-linejoin="bevel" transform="matrix(1,0,0,1,663.333,74)"
font-family="DejaVuSans" font-size="14.6667" font-weight="400" font-style="normal" 
>
</g>
</g>

<g clip-path="url(#clipPath1)"><g fill="#ffd24d" fill-opacity="1" stroke="#333333" stroke-opacity="1" stroke-width="1" stroke-linecap="square" stroke-linejoin="bevel" transform="matrix(1,0,0,1,663.333,74)"
font-family="DejaVuSans" font-size="14.6667" font-weight="400" font-style="normal" 
>
<path vector-effect="none" fill-rule="evenodd" d="M0,6 C0,2.68629 2.68629,0 6,0 C9.31371,0 12,2.68629 12,6 C12,9.31371 9.31371,12 6,12 C2.68629,12 0,9.31371 0,6 "/>
</g>
</g>

<g clip-path="url(#clipPath1)"><g fill="none" stroke="#000000" stroke-opacity="1" stroke-width="1" stroke-linecap="square" stroke-linejoin="bevel" transform="matrix(1,0,0,1,663.333,74)"
font-family="DejaVuSans" font-size="14.6667" font-weight="400" font-style="normal" 
>
</g>
</g>

<g clip-path="url(#clipPath1)"><g fill="none" stroke="#000000" stroke-opacity="1" stroke-width="1" stroke-linecap="square" stroke-linejoin="bevel" transform="matrix(1,0,0,1,663.333,74)"
font-family="DejaVuSans" font-size="14.6667" font-weight="400" font-style="normal" 
>
</g>
</g>

<g clip-path="url(#clipPath1)"><g fill="none" stroke="#000000" stroke-opacity="1" stroke-width="1" stroke-linecap="square" stroke-linejoin="bevel" transform="matrix(1,0,0,1,663.333,74)"
font-family="DejaVuSans" font-size="14.6667" font-weight="400" font-style="normal" 
>
</g>
</g>

<g clip-path="url(#clipPath1)"><g fill="none" stroke="#000000" stroke-opacity="1" stroke-width="1" stroke-linecap="square" stroke-linejoin="bevel" transform="matrix(1,0,0,1,663.333,74)"
font-family="DejaVuSans" font-size="14.6667" font-weight="400" font-style="normal" 
>
</g>
</g>

<g clip-path="url(#clipPath1)"><g fill="none" stroke="#000000" stroke-opacity="1" stroke-width="1" stroke-linecap="square" stroke-linejoin="bevel" transform="matrix(1,0,0,1,91,15)"
font-family="DejaVuSans" font-size="14.6667" font-weight="400" font-style="normal" 
>
</g>
</g>

<g clip-path="url(#clipPath1)"><g fill="none" stroke="#000000" stroke-opacity="1" stroke-width="1" stroke-linecap="square" stroke-linejoin="bevel" transform="matrix(1,0,0,1,432,236.5)"
font-family="DejaVuSans" font-size="14.6667" font-weight="400" font-style="normal" 
>
</g>
</g>

<g clip-path="url(#clipPath1)"><g fill="none" stroke="#000000" stroke-opacity="1" stroke-width="1" stroke-linecap="square" stroke-linejoin="bevel" transform="matrix(1,0,0,1,432,236.5)"
font-family="DejaVuSans" font-size="14.6667" font-weight="400" font-style="normal" 
>
</g>
</g>

<g clip-path="url(#clipPath1)"><g fill="none" stroke="#000000" stroke-opacity="1" stroke-width="1" stroke-linecap="square" stroke-linejoin="bevel" transform="matrix(1,0,0,1,432,236.5)"
font-family="DejaVuSans" font-size="14.6667" font-weight="400" font-style="normal" 
>
</g>
</g>

<g clip-path="url(#clipPath1)"><g fill="#ffe680" fill-opacity="1" stroke="#333333" stroke-opacity="1" stroke-width="1" stroke-linecap="square" stroke-linejoin="bevel" transform="matrix(1,0,0,1,432,236.5)"
font-family="DejaVuSans" font-size="14.6667" font-weight="400" font-style="normal" 
>
<path vector-effect="none" fill-rule="evenodd" d="M0,2 C0,0.895431 0.895431,0 2,0 L10,0 C11.1046,0 12,0.895431 12,2 L12,10 C12,11.1046 11.1046,12 10,12 L2,12 C0.895431,12 0,11.1046 0,10 L0,2"/>
</g>
</g>

<g clip-path="url(#clipPath1)"><g fill="none" stroke="#000000" stroke-opacity="1" stroke-width="1" stroke-linecap="square" stroke-linejoin="bevel" transform="matrix(1,0,0,1,432,236.5)"
font-family="DejaVuSans" font-size="14.6667" font-weight="400" font-style="normal" 
>
</g>
</g>

<g clip-path="url(#clipPath1)"><g fill="none" stroke="#000000" stroke-opacity="1" stroke-width="1" stroke-linecap="square" stroke-linejoin="bevel" transform="matrix(1,0,0,1,435,241.5)"
font-family="DejaVuSans" font-size="14.6667" font-weight="400" font-style="normal" 
>
</g>
</g>

<g clip-path="url(#clipPath1)"><g fill="#333333" fill-opacity="1" stroke="#000000" stroke-opacity="1" stroke-width="1" stroke-linecap="square" stroke-linejoin="bevel" transform="matrix(1,0,0,1,435,241.5)"
font-family="DejaVuSans" font-size="14.6667" font-weight="400" font-style="normal" 
>
<rect x="0" y="0" width="6" height="2"/>
</g>
</g>

<g clip-path="url(#clipPath1)"><g fill="none" stroke="#000000" stroke-opacity="1" stroke-width="1" stroke-linecap="square" stroke-linejoin="bevel" transform="matrix(1,0,0,1,435,241.5)"
font-family="DejaVuSans" font-size="14.6667" font-weight="400" font-style="normal" 
>
</g>
</g>

<g clip-path="url(#clipPath1)"><g fill="none" stroke="#000000" stroke-opacity="1" stroke-width="1" stroke-linecap="square" stroke-linejoin="bevel" transform="matrix(1,0,0,1,432,236.5)"
font-family="DejaVuSans" font-size="14.6667" font-weight="400" font-style="normal" 
>
</g>
</g>

<g clip-path="url(#clipPath1)"><g fill="none" stroke="#000000" stroke-opacity="1" stroke-width="1" stroke-linecap="square" stroke-linejoin="bevel" transform="matrix(1,0,0,1,437,239.5)"
font-family="DejaVuSans" font-size="14.6667" font-weight="400" font-style="normal" 
>
</g>
</g>

<g clip-path="url(#clipPath1)"><g fill="#333333" fill-opacity="1" stroke="#000000" stroke-opacity="1" stroke-width="1" stroke-linecap="square" stroke-linejoin="bevel" transform="matrix(1,0,0,1,437,239.5)"
font-family="DejaVuSans" font-size="14.6667" font-weight="400" font-style="normal" 
>
<rect x="0" y="0" width="2" height="6"/>
</g>
</g>

<g clip-path="url(#clipPath1)"><g fill="none" stroke="#000000" stroke-opacity="1" stroke-width="1" stroke-linecap="square" stroke-linejoin="bevel" transform="matrix(1,0,0,1,437,239.5)"
font-family="DejaVuSans" font-size="14.6667" font-weight="400" font-style="normal" 
>
</g>
</g>

<g clip-path="url(#clipPath1)"><g fill="none" stroke="#000000" stroke-opacity="1" stroke-width="1" stroke-linecap="square" stroke-linejoin="bevel" transform="matrix(1,0,0,1,432,236.5)"
font-family="DejaVuSans" font-size="14.6667" font-weight="400" font-style="normal" 
>
</g>
</g>

<g clip-path="url(#clipPath1)"><g fill="none" stroke="#000000" stroke-opacity="1" stroke-width="1" stroke-linecap="square" stroke-linejoin="bevel" transform="matrix(1,0,0,1,432,236.5)"
font-family="DejaVuSans" font-size="14.6667" font-weight="400" font-style="normal" 
>
</g>
</g>

<g clip-path="url(#clipPath1)"><g fill="none" stroke="#000000" stroke-opacity="1" stroke-width="1" stroke-linecap="square" stroke-linejoin="bevel" transform="matrix(1,0,0,1,432,236.5)"
font-family="DejaVuSans" font-size="14.6667" font-weight="400" font-style="normal" 
>
</g>
</g>

<g clip-path="url(#clipPath1)"><g fill="none" stroke="#000000" stroke-opacity="1" stroke-width="1" stroke-linecap="square" stroke-linejoin="bevel" transform="matrix(1,0,0,1,432,236.5)"
font-family="DejaVuSans" font-size="14.6667" font-weight="400" font-style="normal" 
>
</g>
</g>

<g clip-path="url(#clipPath1)"><g fill="none" stroke="#000000" stroke-opacity="1" stroke-width="1" stroke-linecap="square" stroke-linejoin="bevel" transform="matrix(1,0,0,1,91,15)"
font-family="DejaVuSans" font-size="14.6667" font-weight="400" font-style="normal" 
>
</g>
</g>

<g clip-path="url(#clipPath1)"><g fill="none" stroke="#000000" stroke-opacity="1" stroke-width="1" stroke-linecap="square" stroke-linejoin="bevel" transform="matrix(1,0,0,1,91,15)"
font-family="DejaVuSans" font-size="14.6667" font-weight="400" font-style="normal" 
>
</g>
</g>

<g fill="none" stroke="#000000" stroke-opacity="1" stroke-width="1" stroke-linecap="square" stroke-linejoin="bevel" transform="matrix(1,0,0,1,15,15)"
font-family="DejaVuSans" font-size="14.6667" font-weight="400" font-style="normal" 
>
</g>

<g fill="none" stroke="#000000" stroke-opacity="1" stroke-width="1" stroke-linecap="square" stroke-linejoin="bevel" transform="matrix(1,0,0,1,15,15)"
font-family="DejaVuSans" font-size="14.6667" font-weight="400" font-style="normal" 
>
</g>

<g fill="none" stroke="#000000" stroke-opacity="1" stroke-width="1" stroke-linecap="square" stroke-linejoin="bevel" transform="matrix(1,0,0,1,15,15)"
font-family="DejaVuSans" font-size="14.6667" font-weight="400" font-style="normal" 
>
</g>

<g fill="none" stroke="#000000" stroke-opacity="1" stroke-width="1" stroke-linecap="square" stroke-linejoin="bevel" transform="matrix(1,0,0,1,15,15)"
font-family="DejaVuSans" font-size="14.6667" font-weight="400" font-style="normal" 
>
</g>

<g fill="#ffffff" fill-opacity="1" stroke="#000000" stroke-opacity="1" stroke-width="1" stroke-linecap="square" stroke-linejoin="bevel" transform="matrix(1,0,0,1,15,15)"
font-family="DejaVuSans" font-size="14.6667" font-weight="400" font-style="normal" 
>
<path vector-effect="none" fill-rule="evenodd" d="M76.5,0.5 L76.5,0.5 L66.5,0.5 L76.5,0.5 L76.5,65.5 L66.5,65.5 L76.5,65.5 L76.5,130.5 L66.5,130.5 L76.5,130.5 L76.5,195.5 L66.5,195.5 L76.5,195.5 L76.5,260.5 L66.5,260.5 L76.5,260.5 L76.5,325.5 L66.5,325.5 L76.5,325.5 L76.5,390.5 L66.5,390.5 L76.5,390.5 L76.5,455.5 L66.5,455.5 L76.5,455.5 L76.5,520.5 L66.5,520.5 L76.5,520.5 L76.5,520.5"/>
</g>

<g fill="none" stroke="#000000" stroke-opacity="1" stroke-width="1" stroke-linecap="square" stroke-linejoin="bevel" transform="matrix(1,0,0,1,15,15)"
font-family="DejaVuSans" font-size="14.6667" font-weight="400" font-style="normal" 
>
</g>

<g fill="none" stroke="#000000" stroke-opacity="1" stroke-width="1" stroke-linecap="square" stroke-linejoin="bevel" transform="matrix(1,0,0,1,15,15)"
font-family="DejaVuSans" font-size="14.6667" font-weight="400" font-style="normal" 
>
</g>

<g fill="none" stroke="#000000" stroke-opacity="1" stroke-width="1" stroke-linecap="square" stroke-linejoin="bevel" transform="matrix(1,0,0,1,15,15)"
font-family="DejaVuSans" font-size="14.6667" font-weight="400" font-style="normal" 
>
</g>

<g fill="none" stroke="#000000" stroke-opacity="1" stroke-width="1" stroke-linecap="square" stroke-linejoin="bevel" transform="matrix(1,0,0,1,42.5,6.5)"
font-family="DejaVuSans" font-size="14.6667" font-weight="400" font-style="normal" 
>
</g>

<g fill="none" stroke="#000000" stroke-opacity="1" stroke-width="1" stroke-linecap="square" stroke-linejoin="bevel" transform="matrix(1,0,0,1,42.5,6.5)"
font-family="DejaVuSans" font-size="14.6667" font-weight="400" font-style="normal" 
>
<text fill="#000000" fill-opacity="1" stroke="none" xml:space="preserve" x="0" y="14" font-family="DejaVuSans" font-size="14.6667" font-weight="400" font-style="normal" 
 >7.00</text>
</g>

<g fill="none" stroke="#000000" stroke-opacity="1" stroke-width="1" stroke-linecap="square" stroke-linejoin="bevel" transform="matrix(1,0,0,1,42.5,6.5)"
font-family="DejaVuSans" font-size="14.6667" font-weight="400" font-style="normal" 
>
</g>

<g fill="none" stroke="#000000" stroke-opacity="1" stroke-width="1" stroke-linecap="square" stroke-linejoin="bevel" transform="matrix(1,0,0,1,15,15)"
font-family="DejaVuSans" font-size="14.6667" font-weight="400" font-style="normal" 
>
</g>

<g fill="none" stroke="#000000" stroke-opacity="1" stroke-width="1" stroke-linecap="square" stroke-linejoin="bevel" transform="matrix(1,0,0,1,42.5,71.5)"
font-family="DejaVuSans" font-size="14.6667" font-weight="400" font-style="normal" 
>
</g>

<g fill="none" stroke="#000000" stroke-opacity="1" stroke-width="1" stroke-linecap="square" stroke-linejoin="bevel" transform="matrix(1,0,0,1,42.5,71.5)"
font-family="DejaVuSans" font-size="14.6667" font-weight="400" font-style="normal" 
>
<text fill="#000000" fill-opacity="1" stroke="none" xml:space="preserve" x="0" y="14" font-family="DejaVuSans" font-size="14.6667" font-weight="400" font-style="normal" 
 >6.00</text>
</g>

<g fill="none" stroke="#000000" stroke-opacity="1" stroke-width="1" stroke-linecap="square" stroke-linejoin="bevel" transform="matrix(1,0,0,1,42.5,71.5)"
font-family="DejaVuSans" font-size="14.6667" font-weight="400" font-style="normal" 
>
</g>

<g fill="none" stroke="#000000" stroke-opacity="1" stroke-width="1" stroke-linecap="square" stroke-linejoin="bevel" transform="matrix(1,0,0,1,15,15)"
font-family="DejaVuSans" font-size="14.6667" font-weight="400" font-style="normal" 
>
</g>

<g fill="none" stroke="#000000" stroke-opacity="1" stroke-width="1" stroke-linecap="square" stroke-linejoin="bevel" transform="matrix(1,0,0,1,42.5,136.5)"
font-family="DejaVuSans" font-size="14.6667" font-weight="400" font-style="normal" 
>
</g>

<g fill="none" stroke="#000000" stroke-opacity="1" stroke-width="1" stroke-linecap="square" stroke-linejoin="bevel" transform="matrix(1,0,0,1,42.5,136.5)"
font-family="DejaVuSans" font-size="14.6667" font-weight="400" font-style="normal" 
>
<text fill="#000000" fill-opacity="1" stroke="none" xml:space="preserve" x="0" y="14" font-family="DejaVuSans" font-size="14.6667" font-weight="400" font-style="normal" 
 >5.00</text>
</g>

<g fill="none" stroke="#000000" stroke-opacity="1" stroke-width="1" stroke-linecap="square" stroke-linejoin="bevel" transform="matrix(1,0,0,1,42.5,136.5)"
font-family="DejaVuSans" font-size="14.6667" font-weight="400" font-style="normal" 
>
</g>

<g fill="none" stroke="#000000" stroke-opacity="1" stroke-width="1" stroke-linecap="square" stroke-linejoin="bevel" transform="matrix(1,0,0,1,15,15)"
font-family="DejaVuSans" font-size="14.6667" font-weight="400" font-style="normal" 
>
</g>

<g fill="none" stroke="#000000" stroke-opacity="1" stroke-width="1" stroke-linecap="square" stroke-linejoin="bevel" transform="matrix(1,0,0,1,42.5,201.5)"
font-family="DejaVuSans" font-size="14.6667" font-weight="400" font-style="normal" 
>
</g>

<g fill="none" stroke="#000000" stroke-opacity="1" stroke-width="1" stroke-linecap="square" stroke-linejoin="bevel" transform="matrix(1,0,0,1,42.5,201.5)"
font-family="DejaVuSans" font-size="14.6667" font-weight="400" font-style="normal" 
>
<text fill="#000000" fill-opacity="1" stroke="none" xml:space="preserve" x="0" y="14" font-family="DejaVuSans" font-size="14.6667" font-weight="400" font-style="normal" 
 >4.00</text>
</g>

<g fill="none" stroke="#000000" stroke-opacity="1" stroke-width="1" stroke-linecap="square" stroke-linejoin="bevel" transform="matrix(1,0,0,1,42.5,201.5)"
font-family="DejaVuSans" font-size="14.6667" font-weight="400" font-style="normal" 
>
</g>

<g fill="none" stroke="#000000" stroke-opacity="1" stroke-width="1" stroke-linecap="square" stroke-linejoin="bevel" transform="matrix(1,0,0,1,15,15)"
font-family="DejaVuSans" font-size="14.6667" font-weight="400" font-style="normal" 
>
</g>

<g fill="none" stroke="#000000" stroke-opacity="1" stroke-width="1" stroke-linecap="square" stroke-linejoin="bevel" transform="matrix(1,0,0,1,42.5,266.5)"
font-family="DejaVuSans" font-size="14.6667" font-weight="400" font-style="normal" 
>
</g>

<g fill="none" stroke="#000000" stroke-opacity="1" stroke-width="1" stroke-linecap="square" stroke-linejoin="bevel" transform="matrix(1,0,0,1,42.5,266.5)"
font-family="DejaVuSans" font-size="14.6667" font-weight="400" font-style="normal" 
>
<text fill="#000000" fill-opacity="1" stroke="none" xml:space="preserve" x="0" y="14" font-family="DejaVuSans" font-size="14.6667" font-weight="400" font-style="normal" 
 >3.00</text>
</g>

<g fill="none" stroke="#000000" stroke-opacity="1" stroke-width="1" stroke-linecap="square" stroke-linejoin="bevel" transform="matrix(1,0,0,1,42.5,266.5)"
font-family="DejaVuSans" font-size="14.6667" font-weight="400" font-style="normal" 
>
</g>

<g fill="none" stroke="#000000" stroke-opacity="1" stroke-width="1" stroke-linecap="square" stroke-linejoin="bevel" transform="matrix(1,0,0,1,15,15)"
font-family="DejaVuSans" font-size="14.6667" font-weight="400" font-style="normal" 
>
</g>

<g fill="none" stroke="#000000" stroke-opacity="1" stroke-width="1" stroke-linecap="square" stroke-linejoin="bevel" transform="matrix(1,0,0,1,42.5,331.5)"
font-family="DejaVuSans" font-size="14.6667" font-weight="400" font-style="normal" 
>
</g>

<g fill="none" stroke="#000000" stroke-opacity="1" stroke-width="1" stroke-linecap="square" stroke-linejoin="bevel" transform="matrix(1,0,0,1,42.5,331.5)"
font-family="DejaVuSans" font-size="14.6667" font-weight="400" font-style="normal" 
>
<text fill="#000000" fill-opacity="1" stroke="none" xml:space="preserve" x="0" y="14" font-family="DejaVuSans" font-size="14.6667" font-weight="400" font-style="normal" 
 >2.00</text>
</g>

<g fill="none" stroke="#000000" stroke-opacity="1" stroke-width="1" stroke-linecap="square" stroke-linejoin="bevel" transform="matrix(1,0,0,1,42.5,331.5)"
font-family="DejaVuSans" font-size="14.6667" font-weight="400" font-style="normal" 
>
</g>

<g fill="none" stroke="#000000" stroke-opacity="1" stroke-width="1" stroke-linecap="square" stroke-linejoin="bevel" transform="matrix(1,0,0,1,15,15)"
font-family="DejaVuSans" font-size="14.6667" font-weight="400" font-style="normal" 
>
</g>

<g fill="none" stroke="#000000" stroke-opacity="1" stroke-width="1" stroke-linecap="square" stroke-linejoin="bevel" transform="matrix(1,0,0,1,42.5,396.5)"
font-family="DejaVuSans" font-size="14.6667" font-weight="400" font-style="normal" 
>
</g>

<g fill="none" stroke="#000000" stroke-opacity="1" stroke-width="1" stroke-linecap="square" stroke-linejoin="bevel" transform="matrix(1,0,0,1,42.5,396.5)"
font-family="DejaVuSans" font-size="14.6667" font-weight="400" font-style="normal" 
>
<text fill="#000000" fill-opacity="1" stroke="none" xml:space="preserve" x="0" y="14" font-family="DejaVuSans" font-size="14.6667" font-weight="400" font-style="normal" 
 >1.00</text>
</g>

<g fill="none" stroke="#000000" stroke-opacity="1" stroke-width="1" stroke-linecap="square" stroke-linejoin="bevel" transform="matrix(1,0,0,1,42.5,396.5)"
font-family="DejaVuSans" font-size="14.6667" font-weight="400" font-style="normal" 
>
</g>

<g fill="none" stroke="#000000" stroke-opacity="1" stroke-width="1" stroke-linecap="square" stroke-linejoin="bevel" transform="matrix(1,0,0,1,15,15)"
font-family="DejaVuSans" font-size="14.6667" font-weight="400" font-style="normal" 
>
</g>

<g fill="none" stroke="#000000" stroke-opacity="1" stroke-width="1" stroke-linecap="square" stroke-linejoin="bevel" transform="matrix(1,0,0,1,42.5,461.5)"
font-family="DejaVuSans" font-size="14.6667" font-weight="400" font-style="normal" 
>
</g>

<g fill="none" stroke="#000000" stroke-opacity="1" stroke-width="1" stroke-linecap="square" stroke-linejoin="bevel" transform="matrix(1,0,0,1,42.5,461.5)"
font-family="DejaVuSans" font-size="14.6667" font-weight="400" font-style="normal" 
>
<text fill="#000000" fill-opacity="1" stroke="none" xml:space="preserve" x="0" y="14" font-family="DejaVuSans" font-size="14.6667" font-weight="400" font-style="normal" 
 >0.00</text>
</g>

<g fill="none" stroke="#000000" stroke-opacity="1" stroke-width="1" stroke-linecap="square" stroke-linejoin="bevel" transform="matrix(1,0,0,1,42.5,461.5)"
font-family="DejaVuSans" font-size="14.6667" font-weight="400" font-style="normal" 
>
</g>

<g fill="none" stroke="#000000" stroke-opacity="1" stroke-width="1" stroke-linecap="square" stroke-linejoin="bevel" transform="matrix(1,0,0,1,15,15)"
font-family="DejaVuSans" font-size="14.6667" font-weight="400" font-style="normal" 
>
</g>

<g fill="none" stroke="#000000" stroke-opacity="1" stroke-width="1" stroke-linecap="square" stroke-linejoin="bevel" transform="matrix(1,0,0,1,37.5,526.5)"
font-family="DejaVuSans" font-size="14.6667" font-weight="400" font-style="normal" 
>
</g>

<g fill="none" stroke="#000000" stroke-opacity="1" stroke-width="1" stroke-linecap="square" stroke-linejoin="bevel" transform="matrix(1,0,0,1,37.5,526.5)"
font-family="DejaVuSans" font-size="14.6667" font-weight="400" font-style="normal" 
>
<text fill="#000000" fill-opacity="1" stroke="none" xml:space="preserve" x="0" y="14" font-family="DejaVuSans" font-size="14.6667" font-weight="400" font-style="normal" 
 >-1.00</text>
</g>

<g fill="none" stroke="#000000" stroke-opacity="1" stroke-width="1" stroke-linecap="square" stroke-linejoin="bevel" transform="matrix(1,0,0,1,37.5,526.5)"
font-family="DejaVuSans" font-size="14.6667" font-weight="400" font-style="normal" 
>
</g>

<g fill="none" stroke="#000000" stroke-opacity="1" stroke-width="1" stroke-linecap="square" stroke-linejoin="bevel" transform="matrix(1,0,0,1,15,15)"
font-family="DejaVuSans" font-size="14.6667" font-weight="400" font-style="normal" 
>
</g>

<g fill="none" stroke="#000000" stroke-opacity="1" stroke-width="1" stroke-linecap="square" stroke-linejoin="bevel" transform="matrix(1,0,0,1,15,15)"
font-family="DejaVuSans" font-size="14.6667" font-weight="400" font-style="normal" 
>
</g>

<g fill="none" stroke="#000000" stroke-opacity="1" stroke-width="1" stroke-linecap="square" stroke-linejoin="bevel" transform="matrix(1,0,0,1,15,15)"
font-family="DejaVuSans" font-size="14.6667" font-weight="400" font-style="normal" 
>
</g>

<g fill="none" stroke="#000000" stroke-opacity="1" stroke-width="1" stroke-linecap="square" stroke-linejoin="bevel" transform="matrix(0,-1,1,0,15,280)"
font-family="DejaVuSans" font-size="14.6667" font-weight="400" font-style="normal" 
>
</g>

<g fill="none" stroke="#000000" stroke-opacity="1" stroke-width="1" stroke-linecap="square" stroke-linejoin="bevel" transform="matrix(0,-1,1,0,15,280)"
font-family="DejaVuSans" font-size="14.6667" font-weight="400" font-style="normal" 
>
<text fill="#000000" fill-opacity="1" stroke="none" xml:space="preserve" x="0" y="14" font-family="DejaVuSans" font-size="14.6667" font-weight="400" font-style="normal" 
 >Y</text>
</g>

<g fill="none" stroke="#000000" stroke-opacity="1" stroke-width="1" stroke-linecap="square" stroke-linejoin="bevel" transform="matrix(0,-1,1,0,15,280)"
font-family="DejaVuSans" font-size="14.6667" font-weight="400" font-style="normal" 
>
</g>

<g fill="none" stroke="#000000" stroke-opacity="1" stroke-width="1" stroke-linecap="square" stroke-linejoin="bevel" transform="matrix(1,0,0,1,15,15)"
font-family="DejaVuSans" font-size="14.6667" font-weight="400" font-style="normal" 
>
</g>

<g fill="none" stroke="#000000" stroke-opacity="1" stroke-width="1" stroke-linecap="square" stroke-linejoin="bevel" transform="matrix(1,0,0,1,15,15)"
font-family="DejaVuSans" font-size="14.6667" font-weight="400" font-style="normal" 
>
</g>

<g fill="none" stroke="#000000" stroke-opacity="1" stroke-width="1" stroke-linecap="square" stroke-linejoin="bevel" transform="matrix(1,0,0,1,91,535)"
font-family="DejaVuSans" font-size="14.6667" font-weight="400" font-style="normal" 
>
</g>

<g fill="none" stroke="#000000" stroke-opacity="1" stroke-width="1" stroke-linecap="square" stroke-linejoin="bevel" transform="matrix(1,0,0,1,91,535)"
font-family="DejaVuSans" font-size="14.6667" font-weight="400" font-style="normal" 
>
</g>

<g fill="#ffffff" fill-opacity="1" stroke="#000000" stroke-opacity="1" stroke-width="1" stroke-linecap="square" stroke-linejoin="bevel" transform="matrix(1,0,0,1,91,535)"
font-family="DejaVuSans" font-size="14.6667" font-weight="400" font-style="normal" 
>
<path vector-effect="none" fill-rule="evenodd" d="M0.5,0.5 L57.5,0.5 L57.5,10.5 L57.5,0.5 L173.5,0.5 L173.5,10.5 L173.5,0.5 L289.5,0.5 L289.5,10.5 L289.5,0.5 L404.5,0.5 L404.5,10.5 L404.5,0.5 L520.5,0.5 L520.5,10.5 L520.5,0.5 L636.5,0.5 L636.5,10.5 L636.5,0.5 L694.5,0.5"/>
</g>

<g fill="none" stroke="#000000" stroke-opacity="1" stroke-width="1" stroke-linecap="square" stroke-linejoin="bevel" transform="matrix(1,0,0,1,91,535)"
font-family="DejaVuSans" font-size="14.6667" font-weight="400" font-style="normal" 
>
</g>

<g fill="none" stroke="#000000" stroke-opacity="1" stroke-width="1" stroke-linecap="square" stroke-linejoin="bevel" transform="matrix(1,0,0,1,91,535)"
font-family="DejaVuSans" font-size="14.6667" font-weight="400" font-style="normal" 
>
</g>

<g fill="none" stroke="#000000" stroke-opacity="1" stroke-width="1" stroke-linecap="square" stroke-linejoin="bevel" transform="matrix(1,0,0,1,91,535)"
font-family="DejaVuSans" font-size="14.6667" font-weight="400" font-style="normal" 
>
</g>

<g fill="none" stroke="#000000" stroke-opacity="1" stroke-width="1" stroke-linecap="square" stroke-linejoin="bevel" transform="matrix(1,0,0,1,129,545.5)"
font-family="DejaVuSans" font-size="14.6667" font-weight="400" font-style="normal" 
>
</g>

<g fill="none" stroke="#000000" stroke-opacity="1" stroke-width="1" stroke-linecap="square" stroke-linejoin="bevel" transform="matrix(1,0,0,1,129,545.5)"
font-family="DejaVuSans" font-size="14.6667" font-weight="400" font-style="normal" 
>
<text fill="#000000" fill-opacity="1" stroke="none" xml:space="preserve" x="0" y="14" font-family="DejaVuSans" font-size="14.6667" font-weight="400" font-style="normal" 
 >0.00</text>
</g>

<g fill="none" stroke="#000000" stroke-opacity="1" stroke-width="1" stroke-linecap="square" stroke-linejoin="bevel" transform="matrix(1,0,0,1,129,545.5)"
font-family="DejaVuSans" font-size="14.6667" font-weight="400" font-style="normal" 
>
</g>

<g fill="none" stroke="#000000" stroke-opacity="1" stroke-width="1" stroke-linecap="square" stroke-linejoin="bevel" transform="matrix(1,0,0,1,91,535)"
font-family="DejaVuSans" font-size="14.6667" font-weight="400" font-style="normal" 
>
</g>

<g fill="none" stroke="#000000" stroke-opacity="1" stroke-width="1" stroke-linecap="square" stroke-linejoin="bevel" transform="matrix(1,0,0,1,245,545.5)"
font-family="DejaVuSans" font-size="14.6667" font-weight="400" font-style="normal" 
>
</g>

<g fill="none" stroke="#000000" stroke-opacity="1" stroke-width="1" stroke-linecap="square" stroke-linejoin="bevel" transform="matrix(1,0,0,1,245,545.5)"
font-family="DejaVuSans" font-size="14.6667" font-weight="400" font-style="normal" 
>
<text fill="#000000" fill-opacity="1" stroke="none" xml:space="preserve" x="0" y="14" font-family="DejaVuSans" font-size="14.6667" font-weight="400" font-style="normal" 
 >2.00</text>
</g>

<g fill="none" stroke="#000000" stroke-opacity="1" stroke-width="1" stroke-linecap="square" stroke-linejoin="bevel" transform="matrix(1,0,0,1,245,545.5)"
font-family="DejaVuSans" font-size="14.6667" font-weight="400" font-style="normal" 
>
</g>

<g fill="none" stroke="#000000" stroke-opacity="1" stroke-width="1" stroke-linecap="square" stroke-linejoin="bevel" transform="matrix(1,0,0,1,91,535)"
font-family="DejaVuSans" font-size="14.6667" font-weight="400" font-style="normal" 
>
</g>

<g fill="none" stroke="#000000" stroke-opacity="1" stroke-width="1" stroke-linecap="square" stroke-linejoin="bevel" transform="matrix(1,0,0,1,361,545.5)"
font-family="DejaVuSans" font-size="14.6667" font-weight="400" font-style="normal" 
>
</g>

<g fill="none" stroke="#000000" stroke-opacity="1" stroke-width="1" stroke-linecap="square" stroke-linejoin="bevel" transform="matrix(1,0,0,1,361,545.5)"
font-family="DejaVuSans" font-size="14.6667" font-weight="400" font-style="normal" 
>
<text fill="#000000" fill-opacity="1" stroke="none" xml:space="preserve" x="0" y="14" font-family="DejaVuSans" font-size="14.6667" font-weight="400" font-style="normal" 
 >4.00</text>
</g>

<g fill="none" stroke="#000000" stroke-opacity="1" stroke-width="1" stroke-linecap="square" stroke-linejoin="bevel" transform="matrix(1,0,0,1,361,545.5)"
font-family="DejaVuSans" font-size="14.6667" font-weight="400" font-style="normal" 
>
</g>

<g fill="none" stroke="#000000" stroke-opacity="1" stroke-width="1" stroke-linecap="square" stroke-linejoin="bevel" transform="matrix(1,0,0,1,91,535)"
font-family="DejaVuSans" font-size="14.6667" font-weight="400" font-style="normal" 
>
</g>

<g fill="none" stroke="#000000" stroke-opacity="1" stroke-width="1" stroke-linecap="square" stroke-linejoin="bevel" transform="matrix(1,0,0,1,476,545.5)"
font-family="DejaVuSans" font-size="14.6667" font-weight="400" font-style="normal" 
>
</g>

<g fill="none" stroke="#000000" stroke-opacity="1" stroke-width="1" stroke-linecap="square" stroke-linejoin="bevel" transform="matrix(1,0,0,1,476,545.5)"
font-family="DejaVuSans" font-size="14.6667" font-weight="400" font-style="normal" 
>
<text fill="#000000" fill-opacity="1" stroke="none" xml:space="preserve" x="0" y="14" font-family="DejaVuSans" font-size="14.6667" font-weight="400" font-style="normal" 
 >6.00</text>
</g>

<g fill="none" stroke="#000000" stroke-opacity="1" stroke-width="1" stroke-linecap="square" stroke-linejoin="bevel" transform="matrix(1,0,0,1,476,545.5)"
font-family="DejaVuSans" font-size="14.6667" font-weight="400" font-style="normal" 
>
</g>

<g fill="none" stroke="#000000" stroke-opacity="1" stroke-width="1" stroke-linecap="square" stroke-linejoin="bevel" transform="matrix(1,0,0,1,91,535)"
font-family="DejaVuSans" font-size="14.6667" font-weight="400" font-style="normal" 
>
</g>

<g fill="none" stroke="#000000" stroke-opacity="1" stroke-width="1" stroke-linecap="square" stroke-linejoin="bevel" transform="matrix(1,0,0,1,592,545.5)"
font-family="DejaVuSans" font-size="14.6667" font-weight="400" font-style="normal" 
>
</g>

<g fill="none" stroke="#000000" stroke-opacity="1" stroke-width="1" stroke-linecap="square" stroke-linejoin="bevel" transform="matrix(1,0,0,1,592,545.5)"
font-family="DejaVuSans" font-size="14.6667" font-weight="400" font-style="normal" 
>
<text fill="#000000" fill-opacity="1" stroke="none" xml:space="preserve" x="0" y="14" font-family="DejaVuSans" font-size="14.6667" font-weight="400" font-style="normal" 
 >8.00</text>
</g>

<g fill="none" stroke="#000000" stroke-opacity="1" stroke-width="1" stroke-linecap="square" stroke-linejoin="bevel" transform="matrix(1,0,0,1,592,545.5)"
font-family="DejaVuSans" font-size="14.6667" font-weight="400" font-style="normal" 
>
</g>

<g fill="none" stroke="#000000" stroke-opacity="1" stroke-width="1" stroke-linecap="square" stroke-linejoin="bevel" transform="matrix(1,0,0,1,91,535)"
font-family="DejaVuSans" font-size="14.6667" font-weight="400" font-style="normal" 
>
</g>

<g fill="none" stroke="#000000" stroke-opacity="1" stroke-width="1" stroke-linecap="square" stroke-linejoin="bevel" transform="matrix(1,0,0,1,703,545.5)"
font-family="DejaVuSans" font-size="14.6667" font-weight="400" font-style="normal" 
>
</g>

<g fill="none" stroke="#000000" stroke-opacity="1" stroke-width="1" stroke-linecap="square" stroke-linejoin="bevel" transform="matrix(1,0,0,1,703,545.5)"
font-family="DejaVuSans" font-size="14.6667" font-weight="400" font-style="normal" 
>
<text fill="#000000" fill-opacity="1" stroke="none" xml:space="preserve" x="0" y="14" font-family="DejaVuSans" font-size="14.6667" font-weight="400" font-style="normal" 
 >10.00</text>
</g>

<g fill="none" stroke="#000000" stroke-opacity="1" stroke-width="1" stroke-linecap="square" stroke-linejoin="bevel" transform="matrix(1,0,0,1,703,545.5)"
font-family="DejaVuSans" font-size="14.6667" font-weight="400" font-style="normal" 
>
</g>

<g fill="none" stroke="#000000" stroke-opacity="1" stroke-width="1" stroke-linecap="square" stroke-linejoin="bevel" transform="matrix(1,0,0,1,91,535)"
font-family="DejaVuSans" font-size="14.6667" font-weight="400" font-style="normal" 
>
</g>

<g fill="none" stroke="#000000" stroke-opacity="1" stroke-width="1" stroke-linecap="square" stroke-linejoin="bevel" transform="matrix(1,0,0,1,91,535)"
font-family="DejaVuSans" font-size="14.6667" font-weight="400" font-style="normal" 
>
</g>

<g fill="none" stroke="#000000" stroke-opacity="1" stroke-width="1" stroke-linecap="square" stroke-linejoin="bevel" transform="matrix(1,0,0,1,91,535)"
font-family="DejaVuSans" font-size="14.6667" font-weight="400" font-style="normal" 
>
</g>

<g fill="none" stroke="#000000" stroke-opacity="1" stroke-width="1" stroke-linecap="square" stroke-linejoin="bevel" transform="matrix(1,0,0,1,433,567)"
font-family="DejaVuSans" font-size="14.6667" font-weight="400" font-style="normal" 
>
</g>

<g fill="none" stroke="#000000" stroke-opacity="1" stroke-width="1" stroke-linecap="square" stroke-linejoin="bevel" transform="matrix(1,0,0,1,433,567)"
font-family="DejaVuSans" font-size="14.6667" font-weight="400" font-style="normal" 
>
<text fill="#000000" fill-opacity="1" stroke="none" xml:space="preserve" x="0" y="14" font-family="DejaVuSans" font-size="14.6667" font-weight="400" font-style="normal" 
 >X</text>
</g>

<g fill="none" stroke="#000000" stroke-opacity="1" stroke-width="1" stroke-linecap="square" stroke-linejoin="bevel" transform="matrix(1,0,0,1,433,567)"
font-family="DejaVuSans" font-size="14.6667" font-weight="400" font-style="normal" 
>
</g>

<g fill="none" stroke="#000000" stroke-opacity="1" stroke-width="1" stroke-linecap="square" stroke-linejoin="bevel" transform="matrix(1,0,0,1,91,535)"
font-family="DejaVuSans" font-size="14.6667" font-weight="400" font-style="normal" 
>
</g>

<g fill="none" stroke="#000000" stroke-opacity="1" stroke-width="1" stroke-linecap="square" stroke-linejoin="bevel" transform="matrix(1,0,0,1,15,15)"
font-family="DejaVuSans" font-size="14.6667" font-weight="400" font-style="normal" 
>
</g>

<g fill="none" stroke="#000000" stroke-opacity="1" stroke-width="1" stroke-linecap="square" stroke-linejoin="bevel" transform="matrix(1,0,0,1,0,0)"
font-family="DejaVuSans" font-size="14.6667" font-weight="400" font-style="normal" 
>
</g>

<g fill="none" stroke="#000000" stroke-opacity="1" stroke-width="1" stroke-linecap="square" stroke-linejoin="bevel" transform="matrix(1,0,0,1,0,0)"
font-family="DejaVuSans" font-size="14.6667" font-weight="400" font-style="normal" 
>
</g>

<g fill="none" stroke="#000000" stroke-opacity="1" stroke-width="1" stroke-linecap="square" stroke-linejoin="bevel" transform="matrix(1,0,0,1,0,0)"
font-family="DejaVuSans" font-size="14.6667" font-weight="400" font-style="normal" 
>
</g>

<g fill="none" stroke="#000000" stroke-opacity="1" stroke-width="1" stroke-linecap="square" stroke-linejoin="bevel" transform="matrix(1,0,0,1,0,0)"
font-family="DejaVuSans" font-size="14.6667" font-weight="400" font-style="normal" 
>
</g>
</g>
</svg>
