<?xml version="1.0" encoding="UTF-8" standalone="no"?>
<svg viewBox="0 0 800 600"
 xmlns="http://www.w3.org/2000/svg" xmlns:xlink="http://www.w3.org/1999/xlink" version="1.1">
<title>Qt SVG Document</title>
<desc>Generated with Qt</desc>
<defs>
<clipPath id="clipPath1">
<path vector-effect="none" fill-rule="evenodd" d="M91,15 L785,15 L785,535 L91,535 L91,15"/>
</clipPath>
</defs>
<g fill="none" stroke="black" stroke-width="1" fill-rule="evenodd" stroke-linecap="square" stroke-linejoin="bevel" >

<g fill="none" stroke="#000000" stroke-opacity="1" stroke-width="1" stroke-linecap="square" stroke-linejoin="bevel" transform="matrix(1,0,0,1,0,0)"
font-family="DejaVuSans" font-size="14.6667" font-weight="400" font-style="normal" 
>
</g>

<g fill="none" stroke="#000000" stroke-opacity="1" stroke-width="1" stroke-linecap="square" stroke-linejoin="bevel" transform="matrix(1,0,0,1,0,0)"
font-family="DejaVuSans" font-size="14.6667" font-weight="400" font-style="normal" 
>
</g>

<g fill="#ffffff" fill-opacity="1" stroke="none" transform="matrix(1,0,0,1,0,0)"
font-family="DejaVuSans" font-size="14.6667" font-weight="400" font-style="normal" 
>
<rect x="0" y="0" width="800" height="600"/>
</g>

<g fill="none" stroke="#000000" stroke-opacity="1" stroke-width="1" stroke-linecap="square" stroke-linejoin="bevel" transform="matrix(1,0,0,1,0,0)"
font-family="DejaVuSans" font-size="14.6667" font-weight="400" font-style="normal" 
>
</g>

<g fill="none" stroke="#000000" stroke-opacity="1" stroke-width="1" stroke-linecap="square" stroke-linejoin="bevel" transform="matrix(1,0,0,1,0,0)"
font-family="DejaVuSans" font-size="14.6667" font-weight="400" font-style="normal" 
>
</g>

<g fill="none" stroke="#000000" stroke-opacity="1" stroke-width="1" stroke-linecap="square" stroke-linejoin="bevel" transform="matrix(1,0,0,1,0,0)"
font-family="DejaVuSans" font-size="14.6667" font-weight="400" font-style="normal" 
>
</g>

<g fill="none" stroke="#000000" stroke-opacity="1" stroke-width="1" stroke-linecap="square" stroke-linejoin="bevel" transform="matrix(1,0,0,1,0,0)"
font-family="DejaVuSans" font-size="14.6667" font-weight="400" font-style="normal" 
>
</g>

<g fill="#ffffff" fill-opacity="1" stroke="none" transform="matrix(1,0,0,1,0,0)"
font-family="DejaVuSans" font-size="14.6667" font-weight="400" font-style="normal" 
>
<rect x="0" y="0" width="800" height="600"/>
</g>

<g fill="none" stroke="#000000" stroke-opacity="1" stroke-width="1" stroke-linecap="square" stroke-linejoin="bevel" transform="matrix(1,0,0,1,0,0)"
font-family="DejaVuSans" font-size="14.6667" font-weight="400" font-style="normal" 
>
</g>

<g fill="none" stroke="#000000" stroke-opacity="1" stroke-width="1" stroke-linecap="square" stroke-linejoin="bevel" transform="matrix(1,0,0,1,0,0)"
font-family="DejaVuSans" font-size="14.6667" font-weight="400" font-style="normal" 
>
</g>

<g fill="none" stroke="#000000" stroke-opacity="1" stroke-width="1" stroke-linecap="square" stroke-linejoin="bevel" transform="matrix(1,0,0,1,15,15)"
font-family="DejaVuSans" font-size="14.6667" font-weight="400" font-style="normal" 
>
</g>

<g clip-path="url(#clipPath1)"><g fill="none" stroke="#000000" stroke-opacity="1" stroke-width="1" stroke-linecap="square" stroke-linejoin="bevel" transform="matrix(1,0,0,1,91,15)"
font-family="DejaVuSans" font-size="14.6667" font-weight="400" font-style="normal" 
>
</g>
</g>

<g clip-path="url(#clipPath1)"><g fill="#000000" fill-opacity="0" stroke="#000000" stroke-opacity="0.0666667" stroke-width="1" stroke-linecap="round" stroke-linejoin="round" transform="matrix(1,0,0,1,91,15)"
font-family="DejaVuSans" font-size="14.6667" font-weight="400" font-style="normal" 
>
<path vector-effect="none" fill-rule="evenodd" d="M57.8333,520 L57.8333,0 M173.5,520 L173.5,0 M289.167,520 L289.167,0 M404.833,520 L404.833,0 M520.5,520 L520.5,0 M636.167,520 L636.167,0 M0,520 L694,520 M0,455 L694,455 M0,390 L694,390 M0,325 L694,325 M0,260 L694,260 M0,195 L694,195 M0,130 L694,130 M0,65 L694,65 M0,0 L694,0"/>
</g>
</g>

<g clip-path="url(#clipPath1)"><g fill="none" stroke="#000000" stroke-opacity="1" stroke-width="1" stroke-linecap="square" stroke-linejoin="bevel" transform="matrix(1,0,0,1,91,15)"
font-family="DejaVuSans" font-size="14.6667" font-weight="400" font-style="normal" 
>
</g>
</g>

<g clip-path="url(#clipPath1)"><g fill="#000000" fill-opacity="0" stroke="#000000" stroke-opacity="1" stroke-width="3" stroke-linecap="square" stroke-linejoin="round" transform="matrix(1,0,0,1,91,15)"
font-family="DejaVuSans" font-size="14.6667" font-weight="400" font-style="normal" 
>
<path vector-effect="none" fill-rule="evenodd" d="M144.583,130 L245.792,42.25 L375.917,65 L419.292,136.5 L266.033,152.75 L144.583,130"/>
</g>
</g>

<g clip-path="url(#clipPath1)"><g fill="none" stroke="#000000" stroke-opacity="1" stroke-width="1" stroke-linecap="square" stroke-linejoin="bevel" transform="matrix(1,0,0,1,91,15)"
font-family="DejaVuSans" font-size="14.6667" font-weight="400" font-style="normal" 
>
</g>
</g>

<g clip-path="url(#clipPath1)"><g fill="#000000" fill-opacity="0" stroke="#000000" stroke-opacity="1" stroke-width="1" stroke-linecap="square" stroke-linejoin="round" transform="matrix(1,0,0,1,91,15)"
font-family="DejaVuSans" font-size="14.6667" font-weight="400" font-style="normal" 
>
<path vector-effect="none" fill-rule="evenodd" d="M115.667,373.75 L245.792,146.25 L404.833,195 L534.958,341.25 L318.083,406.25 L115.667,373.75"/>
</g>
</g>

<g clip-path="url(#clipPath1)"><g fill="none" stroke="#000000" stroke-opacity="1" stroke-width="1" stroke-linecap="square" stroke-linejoin="bevel" transform="matrix(1,0,0,1,91,15)"
font-family="DejaVuSans" font-size="14.6667" font-weight="400" font-style="normal" 
>
</g>
</g>

<g clip-path="url(#clipPath1)"><g fill="none" stroke="#000000" stroke-opacity="1" stroke-width="1" stroke-linecap="square" stroke-linejoin="bevel" transform="matrix(1,0,0,1,91,15)"
font-family="DejaVuSans" font-size="14.6667" font-weight="400" font-style="normal" 
>
</g>
</g>

<g clip-path="url(#clipPath1)"><g fill="none" stroke="#000000" stroke-opacity="1" stroke-width="1" stroke-linecap="square" stroke-linejoin="bevel" transform="matrix(1,0,0,1,91,15)"
font-family="DejaVuSans" font-size="14.6667" font-weight="400" font-style="normal" 
>
</g>
</g>

<g clip-path="url(#clipPath1)"><g fill="none" stroke="#000000" stroke-opacity="1" stroke-width="1" stroke-linecap="square" stroke-linejoin="bevel" transform="matrix(1,0,0,1,91,15)"
font-family="DejaVuSans" font-size="14.6667" font-weight="400" font-style="normal" 
>
</g>
</g>

<g clip-path="url(#clipPath1)"><g fill="none" stroke="#000000" stroke-opacity="1" stroke-width="1" stroke-linecap="square" stroke-linejoin="bevel" transform="matrix(1,0,0,1,91,15)"
font-family="DejaVuSans" font-size="14.6667" font-weight="400" font-style="normal" 
>
</g>
</g>

<g clip-path="url(#clipPath1)"><g fill="none" stroke="#000000" stroke-opacity="1" stroke-width="1" stroke-linecap="square" stroke-linejoin="bevel" transform="matrix(1,0,0,1,91,15)"
font-family="DejaVuSans" font-size="14.6667" font-weight="400" font-style="normal" 
>
</g>
</g>

<g clip-path="url(#clipPath1)"><g fill="none" stroke="#000000" stroke-opacity="1" stroke-width="1" stroke-linecap="square" stroke-linejoin="bevel" transform="matrix(1,0,0,1,194.667,376.75)"
font-family="DejaVuSans" font-size="14.6667" font-weight="400" font-style="normal" 
>
</g>
</g>

<g clip-path="url(#clipPath1)"><g fill="none" stroke="#000000" stroke-opacity="1" stroke-width="1" stroke-linecap="square" stroke-linejoin="bevel" transform="matrix(1,0,0,1,202.667,384.75)"
font-family="DejaVuSans" font-size="14.6667" font-weight="400" font-style="normal" 
>
</g>
</g>

<g clip-path="url(#clipPath1)"><g fill="#ffd24d" fill-opacity="1" stroke="#333333" stroke-opacity="1" stroke-width="1" stroke-linecap="square" stroke-linejoin="bevel" transform="matrix(1,0,0,1,202.667,384.75)"
font-family="DejaVuSans" font-size="14.6667" font-weight="400" font-style="normal" 
>
<path vector-effect="none" fill-rule="evenodd" d="M0,4 C0,1.79086 1.79086,0 4,0 C6.20914,0 8,1.79086 8,4 C8,6.20914 6.20914,8 4,8 C1.79086,8 0,6.20914 0,4 "/>
</g>
</g>

<g clip-path="url(#clipPath1)"><g fill="none" stroke="#000000" stroke-opacity="1" stroke-width="1" stroke-linecap="square" stroke-linejoin="bevel" transform="matrix(1,0,0,1,202.667,384.75)"
font-family="DejaVuSans" font-size="14.6667" font-weight="400" font-style="normal" 
>
</g>
</g>

<g clip-path="url(#clipPath1)"><g fill="none" stroke="#000000" stroke-opacity="1" stroke-width="1" stroke-linecap="square" stroke-linejoin="bevel" transform="matrix(1,0,0,1,194.667,376.75)"
font-family="DejaVuSans" font-size="14.6667" font-weight="400" font-style="normal" 
>
</g>
</g>

<g clip-path="url(#clipPath1)"><g fill="none" stroke="#000000" stroke-opacity="1" stroke-width="1" stroke-linecap="square" stroke-linejoin="bevel" transform="matrix(1,0,0,1,194.667,376.75)"
font-family="DejaVuSans" font-size="14.6667" font-weight="400" font-style="normal" 
>
</g>
</g>

<g clip-path="url(#clipPath1)"><g fill="none" stroke="#000000" stroke-opacity="1" stroke-width="1" stroke-linecap="square" stroke-linejoin="bevel" transform="matrix(1,0,0,1,194.667,376.75)"
font-family="DejaVuSans" font-size="14.6667" font-weight="400" font-style="normal" 
>
</g>
</g>

<g clip-path="url(#clipPath1)"><g fill="none" stroke="#000000" stroke-opacity="1" stroke-width="1" stroke-linecap="square" stroke-linejoin="bevel" transform="matrix(1,0,0,1,91,15)"
font-family="DejaVuSans" font-size="14.6667" font-weight="400" font-style="normal" 
>
</g>
</g>

<g clip-path="url(#clipPath1)"><g fill="none" stroke="#000000" stroke-opacity="1" stroke-width="1" stroke-linecap="square" stroke-linejoin="bevel" transform="matrix(1,0,0,1,324.792,149.25)"
font-family="DejaVuSans" font-size="14.6667" font-weight="400" font-style="normal" 
>
</g>
</g>

<g clip-path="url(#clipPath1)"><g fill="none" stroke="#000000" stroke-opacity="1" stroke-width="1" stroke-linecap="square" stroke-linejoin="bevel" transform="matrix(1,0,0,1,332.792,157.25)"
font-family="DejaVuSans" font-size="14.6667" font-weight="400" font-style="normal" 
>
</g>
</g>

<g clip-path="url(#clipPath1)"><g fill="#ffd24d" fill-opacity="1" stroke="#333333" stroke-opacity="1" stroke-width="1" stroke-linecap="square" stroke-linejoin="bevel" transform="matrix(1,0,0,1,332.792,157.25)"
font-family="DejaVuSans" font-size="14.6667" font-weight="400" font-style="normal" 
>
<path vector-effect="none" fill-rule="evenodd" d="M0,4 C0,1.79086 1.79086,0 4,0 C6.20914,0 8,1.79086 8,4 C8,6.20914 6.20914,8 4,8 C1.79086,8 0,6.20914 0,4 "/>
</g>
</g>

<g clip-path="url(#clipPath1)"><g fill="none" stroke="#000000" stroke-opacity="1" stroke-width="1" stroke-linecap="square" stroke-linejoin="bevel" transform="matrix(1,0,0,1,332.792,157.25)"
font-family="DejaVuSans" font-size="14.6667" font-weight="400" font-style="normal" 
>
</g>
</g>

<g clip-path="url(#clipPath1)"><g fill="none" stroke="#000000" stroke-opacity="1" stroke-width="1" stroke-linecap="square" stroke-linejoin="bevel" transform="matrix(1,0,0,1,324.792,149.25)"
font-family="DejaVuSans" font-size="14.6667" font-weight="400" font-style="normal" 
>
</g>
</g>

<g clip-path="url(#clipPath1)"><g fill="none" stroke="#000000" stroke-opacity="1" stroke-width="1" stroke-linecap="square" stroke-linejoin="bevel" transform="matrix(1,0,0,1,324.792,149.25)"
font-family="DejaVuSans" font-size="14.6667" font-weight="400" font-style="normal" 
>
</g>
</g>

<g clip-path="url(#clipPath1)"><g fill="none" stroke="#000000" stroke-opacity="1" stroke-width="1" stroke-linecap="square" stroke-linejoin="bevel" transform="matrix(1,0,0,1,324.792,149.25)"
font-family="DejaVuSans" font-size="14.6667" font-weight="400" font-style="normal" 
>
</g>
</g>

<g clip-path="url(#clipPath1)"><g fill="none" stroke="#000000" stroke-opacity="1" stroke-width="1" stroke-linecap="square" stroke-linejoin="bevel" transform="matrix(1,0,0,1,91,15)"
font-family="DejaVuSans" font-size="14.6667" font-weight="400" font-style="normal" 
>
</g>
</g>

<g clip-path="url(#clipPath1)"><g fill="none" stroke="#000000" stroke-opacity="1" stroke-width="1" stroke-linecap="square" stroke-linejoin="bevel" transform="matrix(1,0,0,1,483.833,198)"
font-family="DejaVuSans" font-size="14.6667" font-weight="400" font-style="normal" 
>
</g>
</g>

<g clip-path="url(#clipPath1)"><g fill="none" stroke="#000000" stroke-opacity="1" stroke-width="1" stroke-linecap="square" stroke-linejoin="bevel" transform="matrix(1,0,0,1,491.833,206)"
font-family="DejaVuSans" font-size="14.6667" font-weight="400" font-style="normal" 
>
</g>
</g>

<g clip-path="url(#clipPath1)"><g fill="#ffd24d" fill-opacity="1" stroke="#333333" stroke-opacity="1" stroke-width="1" stroke-linecap="square" stroke-linejoin="bevel" transform="matrix(1,0,0,1,491.833,206)"
font-family="DejaVuSans" font-size="14.6667" font-weight="400" font-style="normal" 
>
<path vector-effect="none" fill-rule="evenodd" d="M0,4 C0,1.79086 1.79086,0 4,0 C6.20914,0 8,1.79086 8,4 C8,6.20914 6.20914,8 4,8 C1.79086,8 0,6.20914 0,4 "/>
</g>
</g>

<g clip-path="url(#clipPath1)"><g fill="none" stroke="#000000" stroke-opacity="1" stroke-width="1" stroke-linecap="square" stroke-linejoin="bevel" transform="matrix(1,0,0,1,491.833,206)"
font-family="DejaVuSans" font-size="14.6667" font-weight="400" font-style="normal" 
>
</g>
</g>

<g clip-path="url(#clipPath1)"><g fill="none" stroke="#000000" stroke-opacity="1" stroke-width="1" stroke-linecap="square" stroke-linejoin="bevel" transform="matrix(1,0,0,1,483.833,198)"
font-family="DejaVuSans" font-size="14.6667" font-weight="400" font-style="normal" 
>
</g>
</g>

<g clip-path="url(#clipPath1)"><g fill="none" stroke="#000000" stroke-opacity="1" stroke-width="1" stroke-linecap="square" stroke-linejoin="bevel" transform="matrix(1,0,0,1,483.833,198)"
font-family="DejaVuSans" font-size="14.6667" font-weight="400" font-style="normal" 
>
</g>
</g>

<g clip-path="url(#clipPath1)"><g fill="none" stroke="#000000" stroke-opacity="1" stroke-width="1" stroke-linecap="square" stroke-linejoin="bevel" transform="matrix(1,0,0,1,483.833,198)"
font-family="DejaVuSans" font-size="14.6667" font-weight="400" font-style="normal" 
>
</g>
</g>

<g clip-path="url(#clipPath1)"><g fill="none" stroke="#000000" stroke-opacity="1" stroke-width="1" stroke-linecap="square" stroke-linejoin="bevel" transform="matrix(1,0,0,1,91,15)"
font-family="DejaVuSans" font-size="14.6667" font-weight="400" font-style="normal" 
>
</g>
</g>

<g clip-path="url(#clipPath1)"><g fill="none" stroke="#000000" stroke-opacity="1" stroke-width="1" stroke-linecap="square" stroke-linejoin="bevel" transform="matrix(1,0,0,1,613.958,344.25)"
font-family="DejaVuSans" font-size="14.6667" font-weight="400" font-style="normal" 
>
</g>
</g>

<g clip-path="url(#clipPath1)"><g fill="none" stroke="#000000" stroke-opacity="1" stroke-width="1" stroke-linecap="square" stroke-linejoin="bevel" transform="matrix(1,0,0,1,621.958,352.25)"
font-family="DejaVuSans" font-size="14.6667" font-weight="400" font-style="normal" 
>
</g>
</g>

<g clip-path="url(#clipPath1)"><g fill="#ffd24d" fill-opacity="1" stroke="#333333" stroke-opacity="1" stroke-width="1" stroke-linecap="square" stroke-linejoin="bevel" transform="matrix(1,0,0,1,621.958,352.25)"
font-family="DejaVuSans" font-size="14.6667" font-weight="400" font-style="normal" 
>
<path vector-effect="none" fill-rule="evenodd" d="M0,4 C0,1.79086 1.79086,0 4,0 C6.20914,0 8,1.79086 8,4 C8,6.20914 6.20914,8 4,8 C1.79086,8 0,6.20914 0,4 "/>
</g>
</g>

<g clip-path="url(#clipPath1)"><g fill="none" stroke="#000000" stroke-opacity="1" stroke-width="1" stroke-linecap="square" stroke-linejoin="bevel" transform="matrix(1,0,0,1,621.958,352.25)"
font-family="DejaVuSans" font-size="14.6667" font-weight="400" font-style="normal" 
>
</g>
</g>

<g clip-path="url(#clipPath1)"><g fill="none" stroke="#000000" stroke-opacity="1" stroke-width="1" stroke-linecap="square" stroke-linejoin="bevel" transform="matrix(1,0,0,1,613.958,344.25)"
font-family="DejaVuSans" font-size="14.6667" font-weight="400" font-style="normal" 
>
</g>
</g>

<g clip-path="url(#clipPath1)"><g fill="none" stroke="#000000" stroke-opacity="1" stroke-width="1" stroke-linecap="square" stroke-linejoin="bevel" transform="matrix(1,0,0,1,613.958,344.25)"
font-family="DejaVuSans" font-size="14.6667" font-weight="400" font-style="normal" 
>
</g>
</g>

<g clip-path="url(#clipPath1)"><g fill="none" stroke="#000000" stroke-opacity="1" stroke-width="1" stroke-linecap="square" stroke-linejoin="bevel" transform="matrix(1,0,0,1,613.958,344.25)"
font-family="DejaVuSans" font-size="14.6667" font-weight="400" font-style="normal" 
>
</g>
</g>

<g clip-path="url(#clipPath1)"><g fill="none" stroke="#000000" stroke-opacity="1" stroke-width="1" stroke-linecap="square" stroke-linejoin="bevel" transform="matrix(1,0,0,1,91,15)"
font-family="DejaVuSans" font-size="14.6667" font-weight="400" font-style="normal" 
>
</g>
</g>

<g clip-path="url(#clipPath1)"><g fill="none" stroke="#000000" stroke-opacity="1" stroke-width="1" stroke-linecap="square" stroke-linejoin="bevel" transform="matrix(1,0,0,1,397.083,409.25)"
font-family="DejaVuSans" font-size="14.6667" font-weight="400" font-style="normal" 
>
</g>
</g>

<g clip-path="url(#clipPath1)"><g fill="none" stroke="#000000" stroke-opacity="1" stroke-width="1" stroke-linecap="square" stroke-linejoin="bevel" transform="matrix(1,0,0,1,405.083,417.25)"
font-family="DejaVuSans" font-size="14.6667" font-weight="400" font-style="normal" 
>
</g>
</g>

<g clip-path="url(#clipPath1)"><g fill="#ffd24d" fill-opacity="1" stroke="#333333" stroke-opacity="1" stroke-width="1" stroke-linecap="square" stroke-linejoin="bevel" transform="matrix(1,0,0,1,405.083,417.25)"
font-family="DejaVuSans" font-size="14.6667" font-weight="400" font-style="normal" 
>
<path vector-effect="none" fill-rule="evenodd" d="M0,4 C0,1.79086 1.79086,0 4,0 C6.20914,0 8,1.79086 8,4 C8,6.20914 6.20914,8 4,8 C1.79086,8 0,6.20914 0,4 "/>
</g>
</g>

<g clip-path="url(#clipPath1)"><g fill="none" stroke="#000000" stroke-opacity="1" stroke-width="1" stroke-linecap="square" stroke-linejoin="bevel" transform="matrix(1,0,0,1,405.083,417.25)"
font-family="DejaVuSans" font-size="14.6667" font-weight="400" font-style="normal" 
>
</g>
</g>

<g clip-path="url(#clipPath1)"><g fill="none" stroke="#000000" stroke-opacity="1" stroke-width="1" stroke-linecap="square" stroke-linejoin="bevel" transform="matrix(1,0,0,1,397.083,409.25)"
font-family="DejaVuSans" font-size="14.6667" font-weight="400" font-style="normal" 
>
</g>
</g>

<g clip-path="url(#clipPath1)"><g fill="none" stroke="#000000" stroke-opacity="1" stroke-width="1" stroke-linecap="square" stroke-linejoin="bevel" transform="matrix(1,0,0,1,397.083,409.25)"
font-family="DejaVuSans" font-size="14.6667" font-weight="400" font-style="normal" 
>
</g>
</g>

<g clip-path="url(#clipPath1)"><g fill="none" stroke="#000000" stroke-opacity="1" stroke-width="1" stroke-linecap="square" stroke-linejoin="bevel" transform="matrix(1,0,0,1,397.083,409.25)"
font-family="DejaVuSans" font-size="14.6667" font-weight="400" font-style="normal" 
>
</g>
</g>

<g clip-path="url(#clipPath1)"><g fill="none" stroke="#000000" stroke-opacity="1" stroke-width="1" stroke-linecap="square" stroke-linejoin="bevel" transform="matrix(1,0,0,1,91,15)"
font-family="DejaVuSans" font-size="14.6667" font-weight="400" font-style="normal" 
>
</g>
</g>

<g clip-path="url(#clipPath1)"><g fill="none" stroke="#000000" stroke-opacity="1" stroke-width="1" stroke-linecap="square" stroke-linejoin="bevel" transform="matrix(1,0,0,1,91,15)"
font-family="DejaVuSans" font-size="14.6667" font-weight="400" font-style="normal" 
>
</g>
</g>

<g clip-path="url(#clipPath1)"><g fill="none" stroke="#000000" stroke-opacity="1" stroke-width="1" stroke-linecap="square" stroke-linejoin="bevel" transform="matrix(1,0,0,1,91,15)"
font-family="DejaVuSans" font-size="14.6667" font-weight="400" font-style="normal" 
>
</g>
</g>

<g fill="none" stroke="#000000" stroke-opacity="1" stroke-width="1" stroke-linecap="square" stroke-linejoin="bevel" transform="matrix(1,0,0,1,15,15)"
font-family="DejaVuSans" font-size="14.6667" font-weight="400" font-style="normal" 
>
</g>

<g fill="none" stroke="#000000" stroke-opacity="1" stroke-width="1" stroke-linecap="square" stroke-linejoin="bevel" transform="matrix(1,0,0,1,15,15)"
font-family="DejaVuSans" font-size="14.6667" font-weight="400" font-style="normal" 
>
</g>

<g fill="none" stroke="#000000" stroke-opacity="1" stroke-width="1" stroke-linecap="square" stroke-linejoin="bevel" transform="matrix(1,0,0,1,15,15)"
font-family="DejaVuSans" font-size="14.6667" font-weight="400" font-style="normal" 
>
</g>

<g fill="none" stroke="#000000" stroke-opacity="1" stroke-width="1" stroke-linecap="square" stroke-linejoin="bevel" transform="matrix(1,0,0,1,15,15)"
font-family="DejaVuSans" font-size="14.6667" font-weight="400" font-style="normal" 
>
</g>

<g fill="#ffffff" fill-opacity="1" stroke="#000000" stroke-opacity="1" stroke-width="1" stroke-linecap="square" stroke-linejoin="bevel" transform="matrix(1,0,0,1,15,15)"
font-family="DejaVuSans" font-size="14.6667" font-weight="400" font-style="normal" 
>
<path vector-effect="none" fill-rule="evenodd" d="M76.5,0.5 L76.5,0.5 L66.5,0.5 L76.5,0.5 L76.5,65.5 L66.5,65.5 L76.5,65.5 L76.5,130.5 L66.5,130.5 L76.5,130.5 L76.5,195.5 L66.5,195.5 L76.5,195.5 L76.5,260.5 L66.5,260.5 L76.5,260.5 L76.5,325.5 L66.5,325.5 L76.5,325.5 L76.5,390.5 L66.5,390.5 L76.5,390.5 L76.5,455.5 L66.5,455.5 L76.5,455.5 L76.5,520.5 L66.5,520.5 L76.5,520.5 L76.5,520.5"/>
</g>

<g fill="none" stroke="#000000" stroke-opacity="1" stroke-width="1" stroke-linecap="square" stroke-linejoin="bevel" transform="matrix(1,0,0,1,15,15)"
font-family="DejaVuSans" font-size="14.6667" font-weight="400" font-style="normal" 
>
</g>

<g fill="none" stroke="#000000" stroke-opacity="1" stroke-width="1" stroke-linecap="square" stroke-linejoin="bevel" transform="matrix(1,0,0,1,15,15)"
font-family="DejaVuSans" font-size="14.6667" font-weight="400" font-style="normal" 
>
</g>

<g fill="none" stroke="#000000" stroke-opacity="1" stroke-width="1" stroke-linecap="square" stroke-linejoin="bevel" transform="matrix(1,0,0,1,15,15)"
font-family="DejaVuSans" font-size="14.6667" font-weight="400" font-style="normal" 
>
</g>

<g fill="none" stroke="#000000" stroke-opacity="1" stroke-width="1" stroke-linecap="square" stroke-linejoin="bevel" transform="matrix(1,0,0,1,42.5,6.5)"
font-family="DejaVuSans" font-size="14.6667" font-weight="400" font-style="normal" 
>
</g>

<g fill="none" stroke="#000000" stroke-opacity="1" stroke-width="1" stroke-linecap="square" stroke-linejoin="bevel" transform="matrix(1,0,0,1,42.5,6.5)"
font-family="DejaVuSans" font-size="14.6667" font-weight="400" font-style="normal" 
>
<text fill="#000000" fill-opacity="1" stroke="none" xml:space="preserve" x="0" y="14" font-family="DejaVuSans" font-size="14.6667" font-weight="400" font-style="normal" 
 >7.00</text>
</g>

<g fill="none" stroke="#000000" stroke-opacity="1" stroke-width="1" stroke-linecap="square" stroke-linejoin="bevel" transform="matrix(1,0,0,1,42.5,6.5)"
font-family="DejaVuSans" font-size="14.6667" font-weight="400" font-style="normal" 
>
</g>

<g fill="none" stroke="#000000" stroke-opacity="1" stroke-width="1" stroke-linecap="square" stroke-linejoin="bevel" transform="matrix(1,0,0,1,15,15)"
font-family="DejaVuSans" font-size="14.6667" font-weight="400" font-style="normal" 
>
</g>

<g fill="none" stroke="#000000" stroke-opacity="1" stroke-width="1" stroke-linecap="square" stroke-linejoin="bevel" transform="matrix(1,0,0,1,42.5,71.5)"
font-family="DejaVuSans" font-size="14.6667" font-weight="400" font-style="normal" 
>
</g>

<g fill="none" stroke="#000000" stroke-opacity="1" stroke-width="1" stroke-linecap="square" stroke-linejoin="bevel" transform="matrix(1,0,0,1,42.5,71.5)"
font-family="DejaVuSans" font-size="14.6667" font-weight="400" font-style="normal" 
>
<text fill="#000000" fill-opacity="1" stroke="none" xml:space="preserve" x="0" y="14" font-family="DejaVuSans" font-size="14.6667" font-weight="400" font-style="normal" 
 >6.00</text>
</g>

<g fill="none" stroke="#000000" stroke-opacity="1" stroke-width="1" stroke-linecap="square" stroke-linejoin="bevel" transform="matrix(1,0,0,1,42.5,71.5)"
font-family="DejaVuSans" font-size="14.6667" font-weight="400" font-style="normal" 
>
</g>

<g fill="none" stroke="#000000" stroke-opacity="1" stroke-width="1" stroke-linecap="square" stroke-linejoin="bevel" transform="matrix(1,0,0,1,15,15)"
font-family="DejaVuSans" font-size="14.6667" font-weight="400" font-style="normal" 
>
</g>

<g fill="none" stroke="#000000" stroke-opacity="1" stroke-width="1" stroke-linecap="square" stroke-linejoin="bevel" transform="matrix(1,0,0,1,42.5,136.5)"
font-family="DejaVuSans" font-size="14.6667" font-weight="400" font-style="normal" 
>
</g>

<g fill="none" stroke="#000000" stroke-opacity="1" stroke-width="1" stroke-linecap="square" stroke-linejoin="bevel" transform="matrix(1,0,0,1,42.5,136.5)"
font-family="DejaVuSans" font-size="14.6667" font-weight="400" font-style="normal" 
>
<text fill="#000000" fill-opacity="1" stroke="none" xml:space="preserve" x="0" y="14" font-family="DejaVuSans" font-size="14.6667" font-weight="400" font-style="normal" 
 >5.00</text>
</g>

<g fill="none" stroke="#000000" stroke-opacity="1" stroke-width="1" stroke-linecap="square" stroke-linejoin="bevel" transform="matrix(1,0,0,1,42.5,136.5)"
font-family="DejaVuSans" font-size="14.6667" font-weight="400" font-style="normal" 
>
</g>

<g fill="none" stroke="#000000" stroke-opacity="1" stroke-width="1" stroke-linecap="square" stroke-linejoin="bevel" transform="matrix(1,0,0,1,15,15)"
font-family="DejaVuSans" font-size="14.6667" font-weight="400" font-style="normal" 
>
</g>

<g fill="none" stroke="#000000" stroke-opacity="1" stroke-width="1" stroke-linecap="square" stroke-linejoin="bevel" transform="matrix(1,0,0,1,42.5,201.5)"
font-family="DejaVuSans" font-size="14.6667" font-weight="400" font-style="normal" 
>
</g>

<g fill="none" stroke="#000000" stroke-opacity="1" stroke-width="1" stroke-linecap="square" stroke-linejoin="bevel" transform="matrix(1,0,0,1,42.5,201.5)"
font-family="DejaVuSans" font-size="14.6667" font-weight="400" font-style="normal" 
>
<text fill="#000000" fill-opacity="1" stroke="none" xml:space="preserve" x="0" y="14" font-family="DejaVuSans" font-size="14.6667" font-weight="400" font-style="normal" 
 >4.00</text>
</g>

<g fill="none" stroke="#000000" stroke-opacity="1" stroke-width="1" stroke-linecap="square" stroke-linejoin="bevel" transform="matrix(1,0,0,1,42.5,201.5)"
font-family="DejaVuSans" font-size="14.6667" font-weight="400" font-style="normal" 
>
</g>

<g fill="none" stroke="#000000" stroke-opacity="1" stroke-width="1" stroke-linecap="square" stroke-linejoin="bevel" transform="matrix(1,0,0,1,15,15)"
font-family="DejaVuSans" font-size="14.6667" font-weight="400" font-style="normal" 
>
</g>

<g fill="none" stroke="#000000" stroke-opacity="1" stroke-width="1" stroke-linecap="square" stroke-linejoin="bevel" transform="matrix(1,0,0,1,42.5,266.5)"
font-family="DejaVuSans" font-size="14.6667" font-weight="400" font-style="normal" 
>
</g>

<g fill="none" stroke="#000000" stroke-opacity="1" stroke-width="1" stroke-linecap="square" stroke-linejoin="bevel" transform="matrix(1,0,0,1,42.5,266.5)"
font-family="DejaVuSans" font-size="14.6667" font-weight="400" font-style="normal" 
>
<text fill="#000000" fill-opacity="1" stroke="none" xml:space="preserve" x="0" y="14" font-family="DejaVuSans" font-size="14.6667" font-weight="400" font-style="normal" 
 >3.00</text>
</g>

<g fill="none" stroke="#000000" stroke-opacity="1" stroke-width="1" stroke-linecap="square" stroke-linejoin="bevel" transform="matrix(1,0,0,1,42.5,266.5)"
font-family="DejaVuSans" font-size="14.6667" font-weight="400" font-style="normal" 
>
</g>

<g fill="none" stroke="#000000" stroke-opacity="1" stroke-width="1" stroke-linecap="square" stroke-linejoin="bevel" transform="matrix(1,0,0,1,15,15)"
font-family="DejaVuSans" font-size="14.6667" font-weight="400" font-style="normal" 
>
</g>

<g fill="none" stroke="#000000" stroke-opacity="1" stroke-width="1" stroke-linecap="square" stroke-linejoin="bevel" transform="matrix(1,0,0,1,42.5,331.5)"
font-family="DejaVuSans" font-size="14.6667" font-weight="400" font-style="normal" 
>
</g>

<g fill="none" stroke="#000000" stroke-opacity="1" stroke-width="1" stroke-linecap="square" stroke-linejoin="bevel" transform="matrix(1,0,0,1,42.5,331.5)"
font-family="DejaVuSans" font-size="14.6667" font-weight="400" font-style="normal" 
>
<text fill="#000000" fill-opacity="1" stroke="none" xml:space="preserve" x="0" y="14" font-family="DejaVuSans" font-size="14.6667" font-weight="400" font-style="normal" 
 >2.00</text>
</g>

<g fill="none" stroke="#000000" stroke-opacity="1" stroke-width="1" stroke-linecap="square" stroke-linejoin="bevel" transform="matrix(1,0,0,1,42.5,331.5)"
font-family="DejaVuSans" font-size="14.6667" font-weight="400" font-style="normal" 
>
</g>

<g fill="none" stroke="#000000" stroke-opacity="1" stroke-width="1" stroke-linecap="square" stroke-linejoin="bevel" transform="matrix(1,0,0,1,15,15)"
font-family="DejaVuSans" font-size="14.6667" font-weight="400" font-style="normal" 
>
</g>

<g fill="none" stroke="#000000" stroke-opacity="1" stroke-width="1" stroke-linecap="square" stroke-linejoin="bevel" transform="matrix(1,0,0,1,42.5,396.5)"
font-family="DejaVuSans" font-size="14.6667" font-weight="400" font-style="normal" 
>
</g>

<g fill="none" stroke="#000000" stroke-opacity="1" stroke-width="1" stroke-linecap="square" stroke-linejoin="bevel" transform="matrix(1,0,0,1,42.5,396.5)"
font-family="DejaVuSans" font-size="14.6667" font-weight="400" font-style="normal" 
>
<text fill="#000000" fill-opacity="1" stroke="none" xml:space="preserve" x="0" y="14" font-family="DejaVuSans" font-size="14.6667" font-weight="400" font-style="normal" 
 >1.00</text>
</g>

<g fill="none" stroke="#000000" stroke-opacity="1" stroke-width="1" stroke-linecap="square" stroke-linejoin="bevel" transform="matrix(1,0,0,1,42.5,396.5)"
font-family="DejaVuSans" font-size="14.6667" font-weight="400" font-style="normal" 
>
</g>

<g fill="none" stroke="#000000" stroke-opacity="1" stroke-width="1" stroke-linecap="square" stroke-linejoin="bevel" transform="matrix(1,0,0,1,15,15)"
font-family="DejaVuSans" font-size="14.6667" font-weight="400" font-style="normal" 
>
</g>

<g fill="none" stroke="#000000" stroke-opacity="1" stroke-width="1" stroke-linecap="square" stroke-linejoin="bevel" transform="matrix(1,0,0,1,42.5,461.5)"
font-family="DejaVuSans" font-size="14.6667" font-weight="400" font-style="normal" 
>
</g>

<g fill="none" stroke="#000000" stroke-opacity="1" stroke-width="1" stroke-linecap="square" stroke-linejoin="bevel" transform="matrix(1,0,0,1,42.5,461.5)"
font-family="DejaVuSans" font-size="14.6667" font-weight="400" font-style="normal" 
>
<text fill="#000000" fill-opacity="1" stroke="none" xml:space="preserve" x="0" y="14" font-family="DejaVuSans" font-size="14.6667" font-weight="400" font-style="normal" 
 >0.00</text>
</g>

<g fill="none" stroke="#000000" stroke-opacity="1" stroke-width="1" stroke-linecap="square" stroke-linejoin="bevel" transform="matrix(1,0,0,1,42.5,461.5)"
font-family="DejaVuSans" font-size="14.6667" font-weight="400" font-style="normal" 
>
</g>

<g fill="none" stroke="#000000" stroke-opacity="1" stroke-width="1" stroke-linecap="square" stroke-linejoin="bevel" transform="matrix(1,0,0,1,15,15)"
font-family="DejaVuSans" font-size="14.6667" font-weight="400" font-style="normal" 
>
</g>

<g fill="none" stroke="#000000" stroke-opacity="1" stroke-width="1" stroke-linecap="square" stroke-linejoin="bevel" transform="matrix(1,0,0,1,37.5,526.5)"
font-family="DejaVuSans" font-size="14.6667" font-weight="400" font-style="normal" 
>
</g>

<g fill="none" stroke="#000000" stroke-opacity="1" stroke-width="1" stroke-linecap="square" stroke-linejoin="bevel" transform="matrix(1,0,0,1,37.5,526.5)"
font-family="DejaVuSans" font-size="14.6667" font-weight="400" font-style="normal" 
>
<text fill="#000000" fill-opacity="1" stroke="none" xml:space="preserve" x="0" y="14" font-family="DejaVuSans" font-size="14.6667" font-weight="400" font-style="normal" 
 >-1.00</text>
</g>

<g fill="none" stroke="#000000" stroke-opacity="1" stroke-width="1" stroke-linecap="square" stroke-linejoin="bevel" transform="matrix(1,0,0,1,37.5,526.5)"
font-family="DejaVuSans" font-size="14.6667" font-weight="400" font-style="normal" 
>
</g>

<g fill="none" stroke="#000000" stroke-opacity="1" stroke-width="1" stroke-linecap="square" stroke-linejoin="bevel" transform="matrix(1,0,0,1,15,15)"
font-family="DejaVuSans" font-size="14.6667" font-weight="400" font-style="normal" 
>
</g>

<g fill="none" stroke="#000000" stroke-opacity="1" stroke-width="1" stroke-linecap="square" stroke-linejoin="bevel" transform="matrix(1,0,0,1,15,15)"
font-family="DejaVuSans" font-size="14.6667" font-weight="400" font-style="normal" 
>
</g>

<g fill="none" stroke="#000000" stroke-opacity="1" stroke-width="1" stroke-linecap="square" stroke-linejoin="bevel" transform="matrix(1,0,0,1,15,15)"
font-family="DejaVuSans" font-size="14.6667" font-weight="400" font-style="normal" 
>
</g>

<g fill="none" stroke="#000000" stroke-opacity="1" stroke-width="1" stroke-linecap="square" stroke-linejoin="bevel" transform="matrix(0,-1,1,0,15,280)"
font-family="DejaVuSans" font-size="14.6667" font-weight="400" font-style="normal" 
>
</g>

<g fill="none" stroke="#000000" stroke-opacity="1" stroke-width="1" stroke-linecap="square" stroke-linejoin="bevel" transform="matrix(0,-1,1,0,15,280)"
font-family="DejaVuSans" font-size="14.6667" font-weight="400" font-style="normal" 
>
<text fill="#000000" fill-opacity="1" stroke="none" xml:space="preserve" x="0" y="14" font-family="DejaVuSans" font-size="14.6667" font-weight="400" font-style="normal" 
 >Y</text>
</g>

<g fill="none" stroke="#000000" stroke-opacity="1" stroke-width="1" stroke-linecap="square" stroke-linejoin="bevel" transform="matrix(0,-1,1,0,15,280)"
font-family="DejaVuSans" font-size="14.6667" font-weight="400" font-style="normal" 
>
</g>

<g fill="none" stroke="#000000" stroke-opacity="1" stroke-width="1" stroke-linecap="square" stroke-linejoin="bevel" transform="matrix(1,0,0,1,15,15)"
font-family="DejaVuSans" font-size="14.6667" font-weight="400" font-style="normal" 
>
</g>

<g fill="none" stroke="#000000" stroke-opacity="1" stroke-width="1" stroke-linecap="square" stroke-linejoin="bevel" transform="matrix(1,0,0,1,15,15)"
font-family="DejaVuSans" font-size="14.6667" font-weight="400" font-style="normal" 
>
</g>

<g fill="none" stroke="#000000" stroke-opacity="1" stroke-width="1" stroke-linecap="square" stroke-linejoin="bevel" transform="matrix(1,0,0,1,91,535)"
font-family="DejaVuSans" font-size="14.6667" font-weight="400" font-style="normal" 
>
</g>

<g fill="none" stroke="#000000" stroke-opacity="1" stroke-width="1" stroke-linecap="square" stroke-linejoin="bevel" transform="matrix(1,0,0,1,91,535)"
font-family="DejaVuSans" font-size="14.6667" font-weight="400" font-style="normal" 
>
</g>

<g fill="#ffffff" fill-opacity="1" stroke="#000000" stroke-opacity="1" stroke-width="1" stroke-linecap="square" stroke-linejoin="bevel" transform="matrix(1,0,0,1,91,535)"
font-family="DejaVuSans" font-size="14.6667" font-weight="400" font-style="normal" 
>
<path vector-effect="none" fill-rule="evenodd" d="M0.5,0.5 L57.5,0.5 L57.5,10.5 L57.5,0.5 L173.5,0.5 L173.5,10.5 L173.5,0.5 L289.5,0.5 L289.5,10.5 L289.5,0.5 L404.5,0.5 L404.5,10.5 L404.5,0.5 L520.5,0.5 L520.5,10.5 L520.5,0.5 L636.5,0.5 L636.5,10.5 L636.5,0.5 L694.5,0.5"/>
</g>

<g fill="none" stroke="#000000" stroke-opacity="1" stroke-width="1" stroke-linecap="square" stroke-linejoin="bevel" transform="matrix(1,0,0,1,91,535)"
font-family="DejaVuSans" font-size="14.6667" font-weight="400" font-style="normal" 
>
</g>

<g fill="none" stroke="#000000" stroke-opacity="1" stroke-width="1" stroke-linecap="square" stroke-linejoin="bevel" transform="matrix(1,0,0,1,91,535)"
font-family="DejaVuSans" font-size="14.6667" font-weight="400" font-style="normal" 
>
</g>

<g fill="none" stroke="#000000" stroke-opacity="1" stroke-width="1" stroke-linecap="square" stroke-linejoin="bevel" transform="matrix(1,0,0,1,91,535)"
font-family="DejaVuSans" font-size="14.6667" font-weight="400" font-style="normal" 
>
</g>

<g fill="none" stroke="#000000" stroke-opacity="1" stroke-width="1" stroke-linecap="square" stroke-linejoin="bevel" transform="matrix(1,0,0,1,129,545.5)"
font-family="DejaVuSans" font-size="14.6667" font-weight="400" font-style="normal" 
>
</g>

<g fill="none" stroke="#000000" stroke-opacity="1" stroke-width="1" stroke-linecap="square" stroke-linejoin="bevel" transform="matrix(1,0,0,1,129,545.5)"
font-family="DejaVuSans" font-size="14.6667" font-weight="400" font-style="normal" 
>
<text fill="#000000" fill-opacity="1" stroke="none" xml:space="preserve" x="0" y="14" font-family="DejaVuSans" font-size="14.6667" font-weight="400" font-style="normal" 
 >0.00</text>
</g>

<g fill="none" stroke="#000000" stroke-opacity="1" stroke-width="1" stroke-linecap="square" stroke-linejoin="bevel" transform="matrix(1,0,0,1,129,545.5)"
font-family="DejaVuSans" font-size="14.6667" font-weight="400" font-style="normal" 
>
</g>

<g fill="none" stroke="#000000" stroke-opacity="1" stroke-width="1" stroke-linecap="square" stroke-linejoin="bevel" transform="matrix(1,0,0,1,91,535)"
font-family="DejaVuSans" font-size="14.6667" font-weight="400" font-style="normal" 
>
</g>

<g fill="none" stroke="#000000" stroke-opacity="1" stroke-width="1" stroke-linecap="square" stroke-linejoin="bevel" transform="matrix(1,0,0,1,245,545.5)"
font-family="DejaVuSans" font-size="14.6667" font-weight="400" font-style="normal" 
>
</g>

<g fill="none" stroke="#000000" stroke-opacity="1" stroke-width="1" stroke-linecap="square" stroke-linejoin="bevel" transform="matrix(1,0,0,1,245,545.5)"
font-family="DejaVuSans" font-size="14.6667" font-weight="400" font-style="normal" 
>
<text fill="#000000" fill-opacity="1" stroke="none" xml:space="preserve" x="0" y="14" font-family="DejaVuSans" font-size="14.6667" font-weight="400" font-style="normal" 
 >2.00</text>
</g>

<g fill="none" stroke="#000000" stroke-opacity="1" stroke-width="1" stroke-linecap="square" stroke-linejoin="bevel" transform="matrix(1,0,0,1,245,545.5)"
font-family="DejaVuSans" font-size="14.6667" font-weight="400" font-style="normal" 
>
</g>

<g fill="none" stroke="#000000" stroke-opacity="1" stroke-width="1" stroke-linecap="square" stroke-linejoin="bevel" transform="matrix(1,0,0,1,91,535)"
font-family="DejaVuSans" font-size="14.6667" font-weight="400" font-style="normal" 
>
</g>

<g fill="none" stroke="#000000" stroke-opacity="1" stroke-width="1" stroke-linecap="square" stroke-linejoin="bevel" transform="matrix(1,0,0,1,361,545.5)"
font-family="DejaVuSans" font-size="14.6667" font-weight="400" font-style="normal" 
>
</g>

<g fill="none" stroke="#000000" stroke-opacity="1" stroke-width="1" stroke-linecap="square" stroke-linejoin="bevel" transform="matrix(1,0,0,1,361,545.5)"
font-family="DejaVuSans" font-size="14.6667" font-weight="400" font-style="normal" 
>
<text fill="#000000" fill-opacity="1" stroke="none" xml:space="preserve" x="0" y="14" font-family="DejaVuSans" font-size="14.6667" font-weight="400" font-style="normal" 
 >4.00</text>
</g>

<g fill="none" stroke="#000000" stroke-opacity="1" stroke-width="1" stroke-linecap="square" stroke-linejoin="bevel" transform="matrix(1,0,0,1,361,545.5)"
font-family="DejaVuSans" font-size="14.6667" font-weight="400" font-style="normal" 
>
</g>

<g fill="none" stroke="#000000" stroke-opacity="1" stroke-width="1" stroke-linecap="square" stroke-linejoin="bevel" transform="matrix(1,0,0,1,91,535)"
font-family="DejaVuSans" font-size="14.6667" font-weight="400" font-style="normal" 
>
</g>

<g fill="none" stroke="#000000" stroke-opacity="1" stroke-width="1" stroke-linecap="square" stroke-linejoin="bevel" transform="matrix(1,0,0,1,476,545.5)"
font-family="DejaVuSans" font-size="14.6667" font-weight="400" font-style="normal" 
>
</g>

<g fill="none" stroke="#000000" stroke-opacity="1" stroke-width="1" stroke-linecap="square" stroke-linejoin="bevel" transform="matrix(1,0,0,1,476,545.5)"
font-family="DejaVuSans" font-size="14.6667" font-weight="400" font-style="normal" 
>
<text fill="#000000" fill-opacity="1" stroke="none" xml:space="preserve" x="0" y="14" font-family="DejaVuSans" font-size="14.6667" font-weight="400" font-style="normal" 
 >6.00</text>
</g>

<g fill="none" stroke="#000000" stroke-opacity="1" stroke-width="1" stroke-linecap="square" stroke-linejoin="bevel" transform="matrix(1,0,0,1,476,545.5)"
font-family="DejaVuSans" font-size="14.6667" font-weight="400" font-style="normal" 
>
</g>

<g fill="none" stroke="#000000" stroke-opacity="1" stroke-width="1" stroke-linecap="square" stroke-linejoin="bevel" transform="matrix(1,0,0,1,91,535)"
font-family="DejaVuSans" font-size="14.6667" font-weight="400" font-style="normal" 
>
</g>

<g fill="none" stroke="#000000" stroke-opacity="1" stroke-width="1" stroke-linecap="square" stroke-linejoin="bevel" transform="matrix(1,0,0,1,592,545.5)"
font-family="DejaVuSans" font-size="14.6667" font-weight="400" font-style="normal" 
>
</g>

<g fill="none" stroke="#000000" stroke-opacity="1" stroke-width="1" stroke-linecap="square" stroke-linejoin="bevel" transform="matrix(1,0,0,1,592,545.5)"
font-family="DejaVuSans" font-size="14.6667" font-weight="400" font-style="normal" 
>
<text fill="#000000" fill-opacity="1" stroke="none" xml:space="preserve" x="0" y="14" font-family="DejaVuSans" font-size="14.6667" font-weight="400" font-style="normal" 
 >8.00</text>
</g>

<g fill="none" stroke="#000000" stroke-opacity="1" stroke-width="1" stroke-linecap="square" stroke-linejoin="bevel" transform="matrix(1,0,0,1,592,545.5)"
font-family="DejaVuSans" font-size="14.6667" font-weight="400" font-style="normal" 
>
</g>

<g fill="none" stroke="#000000" stroke-opacity="1" stroke-width="1" stroke-linecap="square" stroke-linejoin="bevel" transform="matrix(1,0,0,1,91,535)"
font-family="DejaVuSans" font-size="14.6667" font-weight="400" font-style="normal" 
>
</g>

<g fill="none" stroke="#000000" stroke-opacity="1" stroke-width="1" stroke-linecap="square" stroke-linejoin="bevel" transform="matrix(1,0,0,1,703,545.5)"
font-family="DejaVuSans" font-size="14.6667" font-weight="400" font-style="normal" 
>
</g>

<g fill="none" stroke="#000000" stroke-opacity="1" stroke-width="1" stroke-linecap="square" stroke-linejoin="bevel" transform="matrix(1,0,0,1,703,545.5)"
font-family="DejaVuSans" font-size="14.6667" font-weight="400" font-style="normal" 
>
<text fill="#000000" fill-opacity="1" stroke="none" xml:space="preserve" x="0" y="14" font-family="DejaVuSans" font-size="14.6667" font-weight="400" font-style="normal" 
 >10.00</text>
</g>

<g fill="none" stroke="#000000" stroke-opacity="1" stroke-width="1" stroke-linecap="square" stroke-linejoin="bevel" transform="matrix(1,0,0,1,703,545.5)"
font-family="DejaVuSans" font-size="14.6667" font-weight="400" font-style="normal" 
>
</g>

<g fill="none" stroke="#000000" stroke-opacity="1" stroke-width="1" stroke-linecap="square" stroke-linejoin="bevel" transform="matrix(1,0,0,1,91,535)"
font-family="DejaVuSans" font-size="14.6667" font-weight="400" font-style="normal" 
>
</g>

<g fill="none" stroke="#000000" stroke-opacity="1" stroke-width="1" stroke-linecap="square" stroke-linejoin="bevel" transform="matrix(1,0,0,1,91,535)"
font-family="DejaVuSans" font-size="14.6667" font-weight="400" font-style="normal" 
>
</g>

<g fill="none" stroke="#000000" stroke-opacity="1" stroke-width="1" stroke-linecap="square" stroke-linejoin="bevel" transform="matrix(1,0,0,1,91,535)"
font-family="DejaVuSans" font-size="14.6667" font-weight="400" font-style="normal" 
>
</g>

<g fill="none" stroke="#000000" stroke-opacity="1" stroke-width="1" stroke-linecap="square" stroke-linejoin="bevel" transform="matrix(1,0,0,1,433,567)"
font-family="DejaVuSans" font-size="14.6667" font-weight="400" font-style="normal" 
>
</g>

<g fill="none" stroke="#000000" stroke-opacity="1" stroke-width="1" stroke-linecap="square" stroke-linejoin="bevel" transform="matrix(1,0,0,1,433,567)"
font-family="DejaVuSans" font-size="14.6667" font-weight="400" font-style="normal" 
>
<text fill="#000000" fill-opacity="1" stroke="none" xml:space="preserve" x="0" y="14" font-family="DejaVuSans" font-size="14.6667" font-weight="400" font-style="normal" 
 >X</text>
</g>

<g fill="none" stroke="#000000" stroke-opacity="1" stroke-width="1" stroke-linecap="square" stroke-linejoin="bevel" transform="matrix(1,0,0,1,433,567)"
font-family="DejaVuSans" font-size="14.6667" font-weight="400" font-style="normal" 
>
</g>

<g fill="none" stroke="#000000" stroke-opacity="1" stroke-width="1" stroke-linecap="square" stroke-linejoin="bevel" transform="matrix(1,0,0,1,91,535)"
font-family="DejaVuSans" font-size="14.6667" font-weight="400" font-style="normal" 
>
</g>

<g fill="none" stroke="#000000" stroke-opacity="1" stroke-width="1" stroke-linecap="square" stroke-linejoin="bevel" transform="matrix(1,0,0,1,15,15)"
font-family="DejaVuSans" font-size="14.6667" font-weight="400" font-style="normal" 
>
</g>

<g fill="none" stroke="#000000" stroke-opacity="1" stroke-width="1" stroke-linecap="square" stroke-linejoin="bevel" transform="matrix(1,0,0,1,0,0)"
font-family="DejaVuSans" font-size="14.6667" font-weight="400" font-style="normal" 
>
</g>

<g fill="none" stroke="#000000" stroke-opacity="1" stroke-width="1" stroke-linecap="square" stroke-linejoin="bevel" transform="matrix(1,0,0,1,0,0)"
font-family="DejaVuSans" font-size="14.6667" font-weight="400" font-style="normal" 
>
</g>

<g fill="none" stroke="#000000" stroke-opacity="1" stroke-width="1" stroke-linecap="square" stroke-linejoin="bevel" transform="matrix(1,0,0,1,0,0)"
font-family="DejaVuSans" font-size="14.6667" font-weight="400" font-style="normal" 
>
</g>

<g fill="none" stroke="#000000" stroke-opacity="1" stroke-width="1" stroke-linecap="square" stroke-linejoin="bevel" transform="matrix(1,0,0,1,0,0)"
font-family="DejaVuSans" font-size="14.6667" font-weight="400" font-style="normal" 
>
</g>
</g>
</svg>
